M48
; DRILL file {KiCad 9.0.4} date 2025-09-02T22:47:55-0300
; FORMAT={-:-/ absolute / metric / decimal}
; #@! TF.CreationDate,2025-09-02T22:47:55-03:00
; #@! TF.GenerationSoftware,Kicad,Pcbnew,9.0.4
; #@! TF.FileFunction,Plated,1,2,PTH
FMAT,2
METRIC
; #@! TA.AperFunction,Plated,PTH,ViaDrill
T1C0.300
; #@! TA.AperFunction,Plated,PTH,ViaDrill
T2C0.450
; #@! TA.AperFunction,Plated,PTH,ComponentDrill
T3C0.800
; #@! TA.AperFunction,Plated,PTH,ComponentDrill
T4C0.850
; #@! TA.AperFunction,Plated,PTH,ComponentDrill
T5C0.900
; #@! TA.AperFunction,Plated,PTH,ComponentDrill
T6C1.000
; #@! TA.AperFunction,Plated,PTH,ComponentDrill
T7C1.100
; #@! TA.AperFunction,Plated,PTH,ComponentDrill
T8C1.170
; #@! TA.AperFunction,Plated,PTH,ComponentDrill
T9C1.200
; #@! TA.AperFunction,Plated,PTH,ComponentDrill
T10C1.320
; #@! TA.AperFunction,Plated,PTH,ViaDrill
T11C3.000
; #@! TA.AperFunction,Plated,PTH,ComponentDrill
T12C3.200
%
G90
G05
T1
X98.0Y-55.735
X152.363Y-64.149
X153.606Y-63.964
X154.838Y-64.059
X157.416Y-63.964
X158.686Y-63.964
T2
X100.35Y-30.5
X104.65Y-30.5
T3
X94.92Y-50.235
X95.5Y-71.735
X95.5Y-76.735
X99.42Y-74.235
X105.08Y-50.235
X108.5Y-51.235
X108.5Y-56.235
X109.58Y-74.235
X111.92Y-74.235
X113.695Y-51.96
X113.695Y-54.5
X114.5Y-26.0
X114.5Y-31.0
X121.315Y-51.96
X121.315Y-54.5
X121.5Y-58.235
X121.5Y-68.395
X122.08Y-74.235
X124.295Y-83.0
X126.5Y-49.0
X126.795Y-83.0
X129.0Y-53.92
X129.0Y-64.08
X130.15Y-72.187
X130.15Y-77.067
X131.5Y-49.0
X136.0Y-51.96
X136.0Y-54.5
X136.0Y-57.04
X136.0Y-59.58
X136.0Y-62.12
X136.0Y-64.66
X136.0Y-67.2
X136.0Y-69.74
X136.0Y-72.28
X136.0Y-74.82
X136.0Y-77.36
X136.0Y-79.9
X136.0Y-82.44
X136.0Y-84.98
X137.5Y-47.0
X142.5Y-47.0
X143.62Y-51.96
X143.62Y-54.5
X143.62Y-57.04
X143.62Y-59.58
X143.62Y-62.12
X143.62Y-64.66
X143.62Y-67.2
X143.62Y-69.74
X143.62Y-72.28
X143.62Y-74.82
X143.62Y-77.36
X143.62Y-79.9
X143.62Y-82.44
X143.62Y-84.98
X148.0Y-32.403
X148.0Y-37.403
X148.42Y-26.0
X150.241Y-69.602
X150.241Y-72.602
X150.241Y-75.602
X150.241Y-78.602
X150.241Y-81.602
X155.241Y-69.602
X155.241Y-72.602
X155.241Y-75.602
X155.241Y-78.602
X155.241Y-81.602
X158.58Y-26.0
T4
X100.45Y-38.1
X105.55Y-39.9
T5
X162.0Y-32.0
X162.0Y-34.54
T6
X163.836Y-53.781
X163.836Y-56.551
X163.836Y-59.321
X163.836Y-62.091
X163.836Y-64.861
X166.676Y-55.166
X166.676Y-57.936
X166.676Y-60.706
X166.676Y-63.476
T7
X98.0Y-85.0
X100.54Y-85.0
X103.08Y-85.0
X108.42Y-80.235
X118.58Y-80.235
X119.9Y-28.2
X121.6Y-24.5
X123.3Y-28.2
X125.0Y-24.5
X126.7Y-28.2
X135.46Y-22.95
X140.54Y-22.95
X149.201Y-43.673
X149.201Y-48.173
X155.701Y-43.673
X155.701Y-48.173
T8
X97.1Y-62.735
X97.1Y-67.735
X114.9Y-62.735
X114.9Y-67.735
T9
X121.0Y-36.0
X121.0Y-43.5
X135.5Y-32.0
X135.5Y-39.0
T10
X86.5Y-50.235
X86.5Y-55.235
X86.5Y-65.47
X86.5Y-70.47
T11
X85.5Y-24.0
X85.5Y-83.0
X168.0Y-24.5
X168.0Y-83.0
T12
X166.676Y-46.821
X166.676Y-71.821
T6
G00X88.0Y-32.0
M15
G01X88.0Y-34.0
M16
G05
G00X90.0Y-37.7
M15
G01X92.0Y-37.7
M16
G05
G00X94.0Y-32.0
M15
G01X94.0Y-34.0
M16
G05
M30
