%TF.GenerationSoftware,KiCad,Pcbnew,9.0.4*%
%TF.CreationDate,2025-09-02T22:33:32-03:00*%
%TF.ProjectId,sillion,73696c6c-696f-46e2-9e6b-696361645f70,rev?*%
%TF.SameCoordinates,Original*%
%TF.FileFunction,Soldermask,Bot*%
%TF.FilePolarity,Negative*%
%FSLAX46Y46*%
G04 Gerber Fmt 4.6, Leading zero omitted, Abs format (unit mm)*
G04 Created by KiCad (PCBNEW 9.0.4) date 2025-09-02 22:33:32*
%MOMM*%
%LPD*%
G01*
G04 APERTURE LIST*
G04 Aperture macros list*
%AMRoundRect*
0 Rectangle with rounded corners*
0 $1 Rounding radius*
0 $2 $3 $4 $5 $6 $7 $8 $9 X,Y pos of 4 corners*
0 Add a 4 corners polygon primitive as box body*
4,1,4,$2,$3,$4,$5,$6,$7,$8,$9,$2,$3,0*
0 Add four circle primitives for the rounded corners*
1,1,$1+$1,$2,$3*
1,1,$1+$1,$4,$5*
1,1,$1+$1,$6,$7*
1,1,$1+$1,$8,$9*
0 Add four rect primitives between the rounded corners*
20,1,$1+$1,$2,$3,$4,$5,0*
20,1,$1+$1,$4,$5,$6,$7,0*
20,1,$1+$1,$6,$7,$8,$9,0*
20,1,$1+$1,$8,$9,$2,$3,0*%
G04 Aperture macros list end*
%ADD10C,4.000000*%
%ADD11R,1.600000X1.600000*%
%ADD12C,1.600000*%
%ADD13R,1.800000X1.800000*%
%ADD14C,1.800000*%
%ADD15C,2.000000*%
%ADD16R,2.000000X2.000000*%
%ADD17RoundRect,0.250000X-0.550000X-0.550000X0.550000X-0.550000X0.550000X0.550000X-0.550000X0.550000X0*%
%ADD18O,1.905000X2.000000*%
%ADD19R,1.905000X2.000000*%
%ADD20C,1.500000*%
%ADD21C,2.400000*%
%ADD22R,3.960000X1.980000*%
%ADD23O,3.960000X1.980000*%
%ADD24R,3.500000X3.500000*%
%ADD25RoundRect,0.750000X-0.750000X-1.000000X0.750000X-1.000000X0.750000X1.000000X-0.750000X1.000000X0*%
%ADD26RoundRect,0.875000X-0.875000X-0.875000X0.875000X-0.875000X0.875000X0.875000X-0.875000X0.875000X0*%
%ADD27RoundRect,0.550000X0.550000X0.550000X-0.550000X0.550000X-0.550000X-0.550000X0.550000X-0.550000X0*%
%ADD28C,2.200000*%
%ADD29RoundRect,0.249999X0.850001X0.850001X-0.850001X0.850001X-0.850001X-0.850001X0.850001X-0.850001X0*%
%ADD30RoundRect,0.250000X0.550000X-0.550000X0.550000X0.550000X-0.550000X0.550000X-0.550000X-0.550000X0*%
%ADD31RoundRect,0.250001X0.949999X-0.949999X0.949999X0.949999X-0.949999X0.949999X-0.949999X-0.949999X0*%
%ADD32C,1.400000*%
G04 APERTURE END LIST*
D10*
%TO.C,J2*%
X166676400Y-71820800D03*
X166676400Y-46820800D03*
D11*
X163836400Y-53780800D03*
D12*
X163836400Y-56550800D03*
X163836400Y-59320800D03*
X163836400Y-62090800D03*
X163836400Y-64860800D03*
X166676400Y-55165800D03*
X166676400Y-57935800D03*
X166676400Y-60705800D03*
X166676400Y-63475800D03*
%TD*%
D13*
%TO.C,D3*%
X162000000Y-34540000D03*
D14*
X162000000Y-32000000D03*
%TD*%
D12*
%TO.C,C5*%
X150241200Y-81602000D03*
X155241200Y-81602000D03*
%TD*%
%TO.C,C1*%
X150241200Y-75602000D03*
X155241200Y-75602000D03*
%TD*%
%TO.C,C4*%
X150241200Y-78602000D03*
X155241200Y-78602000D03*
%TD*%
%TO.C,C2*%
X155241200Y-69602000D03*
X150241200Y-69602000D03*
%TD*%
D15*
%TO.C,SW1*%
X149200800Y-43673200D03*
X155700800Y-43673200D03*
X149200800Y-48173200D03*
X155700800Y-48173200D03*
%TD*%
D12*
%TO.C,C6*%
X114500000Y-26000000D03*
X114500000Y-31000000D03*
%TD*%
D14*
%TO.C,U2*%
X126700000Y-28200000D03*
X125000000Y-24500000D03*
X123300000Y-28200000D03*
X121600000Y-24500000D03*
D13*
X119900000Y-28200000D03*
%TD*%
D15*
%TO.C,D1*%
X140540000Y-22950000D03*
D16*
X135460000Y-22950000D03*
%TD*%
D12*
%TO.C,C14*%
X126794888Y-83000000D03*
D17*
X124294888Y-83000000D03*
%TD*%
D18*
%TO.C,Q1*%
X98000000Y-85000000D03*
X100540000Y-85000000D03*
D19*
X103080000Y-85000000D03*
%TD*%
D12*
%TO.C,R6*%
X121500000Y-68395000D03*
X121500000Y-58235000D03*
%TD*%
D20*
%TO.C,Y1*%
X130149600Y-77066800D03*
X130149600Y-72186800D03*
%TD*%
D17*
%TO.C,U4*%
X113695000Y-51960000D03*
D12*
X113695000Y-54500000D03*
X121315000Y-54500000D03*
X121315000Y-51960000D03*
%TD*%
%TO.C,R8*%
X109580000Y-74235000D03*
X99420000Y-74235000D03*
%TD*%
%TO.C,R7*%
X111920000Y-74235000D03*
X122080000Y-74235000D03*
%TD*%
%TO.C,R5*%
X94920000Y-50235000D03*
X105080000Y-50235000D03*
%TD*%
%TO.C,R2*%
X148420000Y-26000000D03*
X158580000Y-26000000D03*
%TD*%
%TO.C,R1*%
X129000000Y-53920000D03*
X129000000Y-64080000D03*
%TD*%
D21*
%TO.C,L1*%
X135500000Y-32000000D03*
X135500000Y-39000000D03*
%TD*%
D22*
%TO.C,J4*%
X86500000Y-65470000D03*
D23*
X86500000Y-70470000D03*
%TD*%
D22*
%TO.C,J3*%
X86500000Y-50235000D03*
D23*
X86500000Y-55235000D03*
%TD*%
D24*
%TO.C,J1*%
X94000000Y-33000000D03*
D25*
X88000000Y-33000000D03*
D26*
X91000000Y-37700000D03*
%TD*%
D27*
%TO.C,F1*%
X114900000Y-67735000D03*
X114900000Y-62735000D03*
D28*
X97100000Y-67735000D03*
X97100000Y-62735000D03*
%TD*%
D29*
%TO.C,D5*%
X118580000Y-80235000D03*
D28*
X108420000Y-80235000D03*
%TD*%
D12*
%TO.C,C15*%
X108500000Y-51235000D03*
X108500000Y-56235000D03*
%TD*%
%TO.C,C13*%
X95500000Y-71735000D03*
X95500000Y-76735000D03*
%TD*%
%TO.C,C12*%
X131500000Y-49000000D03*
X126500000Y-49000000D03*
%TD*%
%TO.C,C9*%
X137500000Y-47000000D03*
X142500000Y-47000000D03*
%TD*%
D30*
%TO.C,C7*%
X148000000Y-37402651D03*
D12*
X148000000Y-32402651D03*
%TD*%
D31*
%TO.C,C8*%
X121000000Y-43500000D03*
D21*
X121000000Y-36000000D03*
%TD*%
D32*
%TO.C,TH1*%
X100450000Y-38100000D03*
X105550000Y-39900000D03*
%TD*%
D17*
%TO.C,U1*%
X136000000Y-51960000D03*
D12*
X136000000Y-54500000D03*
X136000000Y-57040000D03*
X136000000Y-59580000D03*
X136000000Y-62120000D03*
X136000000Y-64660000D03*
X136000000Y-67200000D03*
X136000000Y-69740000D03*
X136000000Y-72280000D03*
X136000000Y-74820000D03*
X136000000Y-77360000D03*
X136000000Y-79900000D03*
X136000000Y-82440000D03*
X136000000Y-84980000D03*
X143620000Y-84980000D03*
X143620000Y-82440000D03*
X143620000Y-79900000D03*
X143620000Y-77360000D03*
X143620000Y-74820000D03*
X143620000Y-72280000D03*
X143620000Y-69740000D03*
X143620000Y-67200000D03*
X143620000Y-64660000D03*
X143620000Y-62120000D03*
X143620000Y-59580000D03*
X143620000Y-57040000D03*
X143620000Y-54500000D03*
X143620000Y-51960000D03*
%TD*%
%TO.C,C3*%
X155241200Y-72602000D03*
X150241200Y-72602000D03*
%TD*%
M02*
