%TF.GenerationSoftware,KiCad,Pcbnew,9.0.4*%
%TF.CreationDate,2025-09-02T22:48:00-03:00*%
%TF.ProjectId,sillion,73696c6c-696f-46e2-9e6b-696361645f70,rev?*%
%TF.SameCoordinates,Original*%
%TF.FileFunction,Plated,1,2,PTH,Mixed*%
%TF.FilePolarity,Positive*%
%FSLAX46Y46*%
G04 Gerber Fmt 4.6, Leading zero omitted, Abs format (unit mm)*
G04 Created by KiCad (PCBNEW 9.0.4) date 2025-09-02 22:48:00*
%MOMM*%
%LPD*%
G01*
G04 APERTURE LIST*
%TA.AperFunction,ViaDrill*%
%ADD10C,0.300000*%
%TD*%
%TA.AperFunction,ViaDrill*%
%ADD11C,0.450000*%
%TD*%
%TA.AperFunction,ComponentDrill*%
%ADD12C,0.800000*%
%TD*%
%TA.AperFunction,ComponentDrill*%
%ADD13C,0.850000*%
%TD*%
%TA.AperFunction,ComponentDrill*%
%ADD14C,0.900000*%
%TD*%
G04 aperture for slot hole*
%TA.AperFunction,ComponentDrill*%
%ADD15C,1.000000*%
%TD*%
%TA.AperFunction,ComponentDrill*%
%ADD16C,1.000000*%
%TD*%
%TA.AperFunction,ComponentDrill*%
%ADD17C,1.100000*%
%TD*%
%TA.AperFunction,ComponentDrill*%
%ADD18C,1.170000*%
%TD*%
%TA.AperFunction,ComponentDrill*%
%ADD19C,1.200000*%
%TD*%
%TA.AperFunction,ComponentDrill*%
%ADD20C,1.320000*%
%TD*%
%TA.AperFunction,ViaDrill*%
%ADD21C,3.000000*%
%TD*%
%TA.AperFunction,ComponentDrill*%
%ADD22C,3.200000*%
%TD*%
G04 APERTURE END LIST*
D10*
X98000000Y-55735000D03*
X152363200Y-64149000D03*
X153606200Y-63964500D03*
X154838400Y-64058800D03*
X157416200Y-63964500D03*
X158686200Y-63964500D03*
D11*
X100350000Y-30500000D03*
X104650000Y-30500000D03*
D12*
%TO.C,R5*%
X94920000Y-50235000D03*
%TO.C,C13*%
X95500000Y-71735000D03*
X95500000Y-76735000D03*
%TO.C,R8*%
X99420000Y-74235000D03*
%TO.C,R5*%
X105080000Y-50235000D03*
%TO.C,C15*%
X108500000Y-51235000D03*
X108500000Y-56235000D03*
%TO.C,R8*%
X109580000Y-74235000D03*
%TO.C,R7*%
X111920000Y-74235000D03*
%TO.C,U4*%
X113695000Y-51960000D03*
X113695000Y-54500000D03*
%TO.C,C6*%
X114500000Y-26000000D03*
X114500000Y-31000000D03*
%TO.C,U4*%
X121315000Y-51960000D03*
X121315000Y-54500000D03*
%TO.C,R6*%
X121500000Y-58235000D03*
X121500000Y-68395000D03*
%TO.C,R7*%
X122080000Y-74235000D03*
%TO.C,C14*%
X124294888Y-83000000D03*
%TO.C,C12*%
X126500000Y-49000000D03*
%TO.C,C14*%
X126794888Y-83000000D03*
%TO.C,R1*%
X129000000Y-53920000D03*
X129000000Y-64080000D03*
%TO.C,Y1*%
X130149600Y-72186800D03*
X130149600Y-77066800D03*
%TO.C,C12*%
X131500000Y-49000000D03*
%TO.C,U1*%
X136000000Y-51960000D03*
X136000000Y-54500000D03*
X136000000Y-57040000D03*
X136000000Y-59580000D03*
X136000000Y-62120000D03*
X136000000Y-64660000D03*
X136000000Y-67200000D03*
X136000000Y-69740000D03*
X136000000Y-72280000D03*
X136000000Y-74820000D03*
X136000000Y-77360000D03*
X136000000Y-79900000D03*
X136000000Y-82440000D03*
X136000000Y-84980000D03*
%TO.C,C9*%
X137500000Y-47000000D03*
X142500000Y-47000000D03*
%TO.C,U1*%
X143620000Y-51960000D03*
X143620000Y-54500000D03*
X143620000Y-57040000D03*
X143620000Y-59580000D03*
X143620000Y-62120000D03*
X143620000Y-64660000D03*
X143620000Y-67200000D03*
X143620000Y-69740000D03*
X143620000Y-72280000D03*
X143620000Y-74820000D03*
X143620000Y-77360000D03*
X143620000Y-79900000D03*
X143620000Y-82440000D03*
X143620000Y-84980000D03*
%TO.C,C7*%
X148000000Y-32402651D03*
X148000000Y-37402651D03*
%TO.C,R2*%
X148420000Y-26000000D03*
%TO.C,C2*%
X150241200Y-69602000D03*
%TO.C,C3*%
X150241200Y-72602000D03*
%TO.C,C1*%
X150241200Y-75602000D03*
%TO.C,C4*%
X150241200Y-78602000D03*
%TO.C,C5*%
X150241200Y-81602000D03*
%TO.C,C2*%
X155241200Y-69602000D03*
%TO.C,C3*%
X155241200Y-72602000D03*
%TO.C,C1*%
X155241200Y-75602000D03*
%TO.C,C4*%
X155241200Y-78602000D03*
%TO.C,C5*%
X155241200Y-81602000D03*
%TO.C,R2*%
X158580000Y-26000000D03*
D13*
%TO.C,TH1*%
X100450000Y-38100000D03*
X105550000Y-39900000D03*
D14*
%TO.C,D3*%
X162000000Y-32000000D03*
X162000000Y-34540000D03*
D15*
%TO.C,J1*%
X88000000Y-34000000D02*
X88000000Y-32000000D01*
X92000000Y-37700000D02*
X90000000Y-37700000D01*
X94000000Y-34000000D02*
X94000000Y-32000000D01*
D16*
%TO.C,J2*%
X163836400Y-53780800D03*
X163836400Y-56550800D03*
X163836400Y-59320800D03*
X163836400Y-62090800D03*
X163836400Y-64860800D03*
X166676400Y-55165800D03*
X166676400Y-57935800D03*
X166676400Y-60705800D03*
X166676400Y-63475800D03*
D17*
%TO.C,Q1*%
X98000000Y-85000000D03*
X100540000Y-85000000D03*
X103080000Y-85000000D03*
%TO.C,D5*%
X108420000Y-80235000D03*
X118580000Y-80235000D03*
%TO.C,U2*%
X119900000Y-28200000D03*
X121600000Y-24500000D03*
X123300000Y-28200000D03*
X125000000Y-24500000D03*
X126700000Y-28200000D03*
%TO.C,D1*%
X135460000Y-22950000D03*
X140540000Y-22950000D03*
%TO.C,SW1*%
X149200800Y-43673200D03*
X149200800Y-48173200D03*
X155700800Y-43673200D03*
X155700800Y-48173200D03*
D18*
%TO.C,F1*%
X97100000Y-62735000D03*
X97100000Y-67735000D03*
X114900000Y-62735000D03*
X114900000Y-67735000D03*
D19*
%TO.C,C8*%
X121000000Y-36000000D03*
X121000000Y-43500000D03*
%TO.C,L1*%
X135500000Y-32000000D03*
X135500000Y-39000000D03*
D20*
%TO.C,J3*%
X86500000Y-50235000D03*
X86500000Y-55235000D03*
%TO.C,J4*%
X86500000Y-65470000D03*
X86500000Y-70470000D03*
%TD*%
D21*
X85500000Y-24000000D03*
X85500000Y-83000000D03*
X168000000Y-24500000D03*
X168000000Y-83000000D03*
D22*
%TO.C,J2*%
X166676400Y-46820800D03*
X166676400Y-71820800D03*
M02*
