%TF.GenerationSoftware,KiCad,Pcbnew,9.0.4*%
%TF.CreationDate,2025-09-02T22:33:32-03:00*%
%TF.ProjectId,sillion,73696c6c-696f-46e2-9e6b-696361645f70,rev?*%
%TF.SameCoordinates,Original*%
%TF.FileFunction,Legend,Top*%
%TF.FilePolarity,Positive*%
%FSLAX46Y46*%
G04 Gerber Fmt 4.6, Leading zero omitted, Abs format (unit mm)*
G04 Created by KiCad (PCBNEW 9.0.4) date 2025-09-02 22:33:32*
%MOMM*%
%LPD*%
G01*
G04 APERTURE LIST*
%ADD10C,0.150000*%
%ADD11C,0.120000*%
G04 APERTURE END LIST*
D10*
X160166666Y-62954819D02*
X160166666Y-63669104D01*
X160166666Y-63669104D02*
X160119047Y-63811961D01*
X160119047Y-63811961D02*
X160023809Y-63907200D01*
X160023809Y-63907200D02*
X159880952Y-63954819D01*
X159880952Y-63954819D02*
X159785714Y-63954819D01*
X160595238Y-63050057D02*
X160642857Y-63002438D01*
X160642857Y-63002438D02*
X160738095Y-62954819D01*
X160738095Y-62954819D02*
X160976190Y-62954819D01*
X160976190Y-62954819D02*
X161071428Y-63002438D01*
X161071428Y-63002438D02*
X161119047Y-63050057D01*
X161119047Y-63050057D02*
X161166666Y-63145295D01*
X161166666Y-63145295D02*
X161166666Y-63240533D01*
X161166666Y-63240533D02*
X161119047Y-63383390D01*
X161119047Y-63383390D02*
X160547619Y-63954819D01*
X160547619Y-63954819D02*
X161166666Y-63954819D01*
X158494819Y-34008094D02*
X157494819Y-34008094D01*
X157494819Y-34008094D02*
X157494819Y-33769999D01*
X157494819Y-33769999D02*
X157542438Y-33627142D01*
X157542438Y-33627142D02*
X157637676Y-33531904D01*
X157637676Y-33531904D02*
X157732914Y-33484285D01*
X157732914Y-33484285D02*
X157923390Y-33436666D01*
X157923390Y-33436666D02*
X158066247Y-33436666D01*
X158066247Y-33436666D02*
X158256723Y-33484285D01*
X158256723Y-33484285D02*
X158351961Y-33531904D01*
X158351961Y-33531904D02*
X158447200Y-33627142D01*
X158447200Y-33627142D02*
X158494819Y-33769999D01*
X158494819Y-33769999D02*
X158494819Y-34008094D01*
X157494819Y-33103332D02*
X157494819Y-32484285D01*
X157494819Y-32484285D02*
X157875771Y-32817618D01*
X157875771Y-32817618D02*
X157875771Y-32674761D01*
X157875771Y-32674761D02*
X157923390Y-32579523D01*
X157923390Y-32579523D02*
X157971009Y-32531904D01*
X157971009Y-32531904D02*
X158066247Y-32484285D01*
X158066247Y-32484285D02*
X158304342Y-32484285D01*
X158304342Y-32484285D02*
X158399580Y-32531904D01*
X158399580Y-32531904D02*
X158447200Y-32579523D01*
X158447200Y-32579523D02*
X158494819Y-32674761D01*
X158494819Y-32674761D02*
X158494819Y-32960475D01*
X158494819Y-32960475D02*
X158447200Y-33055713D01*
X158447200Y-33055713D02*
X158399580Y-33103332D01*
X157333333Y-81859580D02*
X157285714Y-81907200D01*
X157285714Y-81907200D02*
X157142857Y-81954819D01*
X157142857Y-81954819D02*
X157047619Y-81954819D01*
X157047619Y-81954819D02*
X156904762Y-81907200D01*
X156904762Y-81907200D02*
X156809524Y-81811961D01*
X156809524Y-81811961D02*
X156761905Y-81716723D01*
X156761905Y-81716723D02*
X156714286Y-81526247D01*
X156714286Y-81526247D02*
X156714286Y-81383390D01*
X156714286Y-81383390D02*
X156761905Y-81192914D01*
X156761905Y-81192914D02*
X156809524Y-81097676D01*
X156809524Y-81097676D02*
X156904762Y-81002438D01*
X156904762Y-81002438D02*
X157047619Y-80954819D01*
X157047619Y-80954819D02*
X157142857Y-80954819D01*
X157142857Y-80954819D02*
X157285714Y-81002438D01*
X157285714Y-81002438D02*
X157333333Y-81050057D01*
X158238095Y-80954819D02*
X157761905Y-80954819D01*
X157761905Y-80954819D02*
X157714286Y-81431009D01*
X157714286Y-81431009D02*
X157761905Y-81383390D01*
X157761905Y-81383390D02*
X157857143Y-81335771D01*
X157857143Y-81335771D02*
X158095238Y-81335771D01*
X158095238Y-81335771D02*
X158190476Y-81383390D01*
X158190476Y-81383390D02*
X158238095Y-81431009D01*
X158238095Y-81431009D02*
X158285714Y-81526247D01*
X158285714Y-81526247D02*
X158285714Y-81764342D01*
X158285714Y-81764342D02*
X158238095Y-81859580D01*
X158238095Y-81859580D02*
X158190476Y-81907200D01*
X158190476Y-81907200D02*
X158095238Y-81954819D01*
X158095238Y-81954819D02*
X157857143Y-81954819D01*
X157857143Y-81954819D02*
X157761905Y-81907200D01*
X157761905Y-81907200D02*
X157714286Y-81859580D01*
X157333333Y-75859580D02*
X157285714Y-75907200D01*
X157285714Y-75907200D02*
X157142857Y-75954819D01*
X157142857Y-75954819D02*
X157047619Y-75954819D01*
X157047619Y-75954819D02*
X156904762Y-75907200D01*
X156904762Y-75907200D02*
X156809524Y-75811961D01*
X156809524Y-75811961D02*
X156761905Y-75716723D01*
X156761905Y-75716723D02*
X156714286Y-75526247D01*
X156714286Y-75526247D02*
X156714286Y-75383390D01*
X156714286Y-75383390D02*
X156761905Y-75192914D01*
X156761905Y-75192914D02*
X156809524Y-75097676D01*
X156809524Y-75097676D02*
X156904762Y-75002438D01*
X156904762Y-75002438D02*
X157047619Y-74954819D01*
X157047619Y-74954819D02*
X157142857Y-74954819D01*
X157142857Y-74954819D02*
X157285714Y-75002438D01*
X157285714Y-75002438D02*
X157333333Y-75050057D01*
X158285714Y-75954819D02*
X157714286Y-75954819D01*
X158000000Y-75954819D02*
X158000000Y-74954819D01*
X158000000Y-74954819D02*
X157904762Y-75097676D01*
X157904762Y-75097676D02*
X157809524Y-75192914D01*
X157809524Y-75192914D02*
X157714286Y-75240533D01*
X157333333Y-78859580D02*
X157285714Y-78907200D01*
X157285714Y-78907200D02*
X157142857Y-78954819D01*
X157142857Y-78954819D02*
X157047619Y-78954819D01*
X157047619Y-78954819D02*
X156904762Y-78907200D01*
X156904762Y-78907200D02*
X156809524Y-78811961D01*
X156809524Y-78811961D02*
X156761905Y-78716723D01*
X156761905Y-78716723D02*
X156714286Y-78526247D01*
X156714286Y-78526247D02*
X156714286Y-78383390D01*
X156714286Y-78383390D02*
X156761905Y-78192914D01*
X156761905Y-78192914D02*
X156809524Y-78097676D01*
X156809524Y-78097676D02*
X156904762Y-78002438D01*
X156904762Y-78002438D02*
X157047619Y-77954819D01*
X157047619Y-77954819D02*
X157142857Y-77954819D01*
X157142857Y-77954819D02*
X157285714Y-78002438D01*
X157285714Y-78002438D02*
X157333333Y-78050057D01*
X158190476Y-78288152D02*
X158190476Y-78954819D01*
X157952381Y-77907200D02*
X157714286Y-78621485D01*
X157714286Y-78621485D02*
X158333333Y-78621485D01*
X157333333Y-69859580D02*
X157285714Y-69907200D01*
X157285714Y-69907200D02*
X157142857Y-69954819D01*
X157142857Y-69954819D02*
X157047619Y-69954819D01*
X157047619Y-69954819D02*
X156904762Y-69907200D01*
X156904762Y-69907200D02*
X156809524Y-69811961D01*
X156809524Y-69811961D02*
X156761905Y-69716723D01*
X156761905Y-69716723D02*
X156714286Y-69526247D01*
X156714286Y-69526247D02*
X156714286Y-69383390D01*
X156714286Y-69383390D02*
X156761905Y-69192914D01*
X156761905Y-69192914D02*
X156809524Y-69097676D01*
X156809524Y-69097676D02*
X156904762Y-69002438D01*
X156904762Y-69002438D02*
X157047619Y-68954819D01*
X157047619Y-68954819D02*
X157142857Y-68954819D01*
X157142857Y-68954819D02*
X157285714Y-69002438D01*
X157285714Y-69002438D02*
X157333333Y-69050057D01*
X157714286Y-69050057D02*
X157761905Y-69002438D01*
X157761905Y-69002438D02*
X157857143Y-68954819D01*
X157857143Y-68954819D02*
X158095238Y-68954819D01*
X158095238Y-68954819D02*
X158190476Y-69002438D01*
X158190476Y-69002438D02*
X158238095Y-69050057D01*
X158238095Y-69050057D02*
X158285714Y-69145295D01*
X158285714Y-69145295D02*
X158285714Y-69240533D01*
X158285714Y-69240533D02*
X158238095Y-69383390D01*
X158238095Y-69383390D02*
X157666667Y-69954819D01*
X157666667Y-69954819D02*
X158285714Y-69954819D01*
X156098342Y-56141580D02*
X156050723Y-56189200D01*
X156050723Y-56189200D02*
X155907866Y-56236819D01*
X155907866Y-56236819D02*
X155812628Y-56236819D01*
X155812628Y-56236819D02*
X155669771Y-56189200D01*
X155669771Y-56189200D02*
X155574533Y-56093961D01*
X155574533Y-56093961D02*
X155526914Y-55998723D01*
X155526914Y-55998723D02*
X155479295Y-55808247D01*
X155479295Y-55808247D02*
X155479295Y-55665390D01*
X155479295Y-55665390D02*
X155526914Y-55474914D01*
X155526914Y-55474914D02*
X155574533Y-55379676D01*
X155574533Y-55379676D02*
X155669771Y-55284438D01*
X155669771Y-55284438D02*
X155812628Y-55236819D01*
X155812628Y-55236819D02*
X155907866Y-55236819D01*
X155907866Y-55236819D02*
X156050723Y-55284438D01*
X156050723Y-55284438D02*
X156098342Y-55332057D01*
X157050723Y-56236819D02*
X156479295Y-56236819D01*
X156765009Y-56236819D02*
X156765009Y-55236819D01*
X156765009Y-55236819D02*
X156669771Y-55379676D01*
X156669771Y-55379676D02*
X156574533Y-55474914D01*
X156574533Y-55474914D02*
X156479295Y-55522533D01*
X158003104Y-56236819D02*
X157431676Y-56236819D01*
X157717390Y-56236819D02*
X157717390Y-55236819D01*
X157717390Y-55236819D02*
X157622152Y-55379676D01*
X157622152Y-55379676D02*
X157526914Y-55474914D01*
X157526914Y-55474914D02*
X157431676Y-55522533D01*
X151357142Y-56141580D02*
X151309523Y-56189200D01*
X151309523Y-56189200D02*
X151166666Y-56236819D01*
X151166666Y-56236819D02*
X151071428Y-56236819D01*
X151071428Y-56236819D02*
X150928571Y-56189200D01*
X150928571Y-56189200D02*
X150833333Y-56093961D01*
X150833333Y-56093961D02*
X150785714Y-55998723D01*
X150785714Y-55998723D02*
X150738095Y-55808247D01*
X150738095Y-55808247D02*
X150738095Y-55665390D01*
X150738095Y-55665390D02*
X150785714Y-55474914D01*
X150785714Y-55474914D02*
X150833333Y-55379676D01*
X150833333Y-55379676D02*
X150928571Y-55284438D01*
X150928571Y-55284438D02*
X151071428Y-55236819D01*
X151071428Y-55236819D02*
X151166666Y-55236819D01*
X151166666Y-55236819D02*
X151309523Y-55284438D01*
X151309523Y-55284438D02*
X151357142Y-55332057D01*
X152309523Y-56236819D02*
X151738095Y-56236819D01*
X152023809Y-56236819D02*
X152023809Y-55236819D01*
X152023809Y-55236819D02*
X151928571Y-55379676D01*
X151928571Y-55379676D02*
X151833333Y-55474914D01*
X151833333Y-55474914D02*
X151738095Y-55522533D01*
X152928571Y-55236819D02*
X153023809Y-55236819D01*
X153023809Y-55236819D02*
X153119047Y-55284438D01*
X153119047Y-55284438D02*
X153166666Y-55332057D01*
X153166666Y-55332057D02*
X153214285Y-55427295D01*
X153214285Y-55427295D02*
X153261904Y-55617771D01*
X153261904Y-55617771D02*
X153261904Y-55855866D01*
X153261904Y-55855866D02*
X153214285Y-56046342D01*
X153214285Y-56046342D02*
X153166666Y-56141580D01*
X153166666Y-56141580D02*
X153119047Y-56189200D01*
X153119047Y-56189200D02*
X153023809Y-56236819D01*
X153023809Y-56236819D02*
X152928571Y-56236819D01*
X152928571Y-56236819D02*
X152833333Y-56189200D01*
X152833333Y-56189200D02*
X152785714Y-56141580D01*
X152785714Y-56141580D02*
X152738095Y-56046342D01*
X152738095Y-56046342D02*
X152690476Y-55855866D01*
X152690476Y-55855866D02*
X152690476Y-55617771D01*
X152690476Y-55617771D02*
X152738095Y-55427295D01*
X152738095Y-55427295D02*
X152785714Y-55332057D01*
X152785714Y-55332057D02*
X152833333Y-55284438D01*
X152833333Y-55284438D02*
X152928571Y-55236819D01*
X149238095Y-64954819D02*
X149238095Y-65764342D01*
X149238095Y-65764342D02*
X149285714Y-65859580D01*
X149285714Y-65859580D02*
X149333333Y-65907200D01*
X149333333Y-65907200D02*
X149428571Y-65954819D01*
X149428571Y-65954819D02*
X149619047Y-65954819D01*
X149619047Y-65954819D02*
X149714285Y-65907200D01*
X149714285Y-65907200D02*
X149761904Y-65859580D01*
X149761904Y-65859580D02*
X149809523Y-65764342D01*
X149809523Y-65764342D02*
X149809523Y-64954819D01*
X150190476Y-64954819D02*
X150809523Y-64954819D01*
X150809523Y-64954819D02*
X150476190Y-65335771D01*
X150476190Y-65335771D02*
X150619047Y-65335771D01*
X150619047Y-65335771D02*
X150714285Y-65383390D01*
X150714285Y-65383390D02*
X150761904Y-65431009D01*
X150761904Y-65431009D02*
X150809523Y-65526247D01*
X150809523Y-65526247D02*
X150809523Y-65764342D01*
X150809523Y-65764342D02*
X150761904Y-65859580D01*
X150761904Y-65859580D02*
X150714285Y-65907200D01*
X150714285Y-65907200D02*
X150619047Y-65954819D01*
X150619047Y-65954819D02*
X150333333Y-65954819D01*
X150333333Y-65954819D02*
X150238095Y-65907200D01*
X150238095Y-65907200D02*
X150190476Y-65859580D01*
X153666667Y-50907200D02*
X153809524Y-50954819D01*
X153809524Y-50954819D02*
X154047619Y-50954819D01*
X154047619Y-50954819D02*
X154142857Y-50907200D01*
X154142857Y-50907200D02*
X154190476Y-50859580D01*
X154190476Y-50859580D02*
X154238095Y-50764342D01*
X154238095Y-50764342D02*
X154238095Y-50669104D01*
X154238095Y-50669104D02*
X154190476Y-50573866D01*
X154190476Y-50573866D02*
X154142857Y-50526247D01*
X154142857Y-50526247D02*
X154047619Y-50478628D01*
X154047619Y-50478628D02*
X153857143Y-50431009D01*
X153857143Y-50431009D02*
X153761905Y-50383390D01*
X153761905Y-50383390D02*
X153714286Y-50335771D01*
X153714286Y-50335771D02*
X153666667Y-50240533D01*
X153666667Y-50240533D02*
X153666667Y-50145295D01*
X153666667Y-50145295D02*
X153714286Y-50050057D01*
X153714286Y-50050057D02*
X153761905Y-50002438D01*
X153761905Y-50002438D02*
X153857143Y-49954819D01*
X153857143Y-49954819D02*
X154095238Y-49954819D01*
X154095238Y-49954819D02*
X154238095Y-50002438D01*
X154571429Y-49954819D02*
X154809524Y-50954819D01*
X154809524Y-50954819D02*
X155000000Y-50240533D01*
X155000000Y-50240533D02*
X155190476Y-50954819D01*
X155190476Y-50954819D02*
X155428572Y-49954819D01*
X156333333Y-50954819D02*
X155761905Y-50954819D01*
X156047619Y-50954819D02*
X156047619Y-49954819D01*
X156047619Y-49954819D02*
X155952381Y-50097676D01*
X155952381Y-50097676D02*
X155857143Y-50192914D01*
X155857143Y-50192914D02*
X155761905Y-50240533D01*
X112659580Y-28666666D02*
X112707200Y-28714285D01*
X112707200Y-28714285D02*
X112754819Y-28857142D01*
X112754819Y-28857142D02*
X112754819Y-28952380D01*
X112754819Y-28952380D02*
X112707200Y-29095237D01*
X112707200Y-29095237D02*
X112611961Y-29190475D01*
X112611961Y-29190475D02*
X112516723Y-29238094D01*
X112516723Y-29238094D02*
X112326247Y-29285713D01*
X112326247Y-29285713D02*
X112183390Y-29285713D01*
X112183390Y-29285713D02*
X111992914Y-29238094D01*
X111992914Y-29238094D02*
X111897676Y-29190475D01*
X111897676Y-29190475D02*
X111802438Y-29095237D01*
X111802438Y-29095237D02*
X111754819Y-28952380D01*
X111754819Y-28952380D02*
X111754819Y-28857142D01*
X111754819Y-28857142D02*
X111802438Y-28714285D01*
X111802438Y-28714285D02*
X111850057Y-28666666D01*
X111754819Y-27809523D02*
X111754819Y-27999999D01*
X111754819Y-27999999D02*
X111802438Y-28095237D01*
X111802438Y-28095237D02*
X111850057Y-28142856D01*
X111850057Y-28142856D02*
X111992914Y-28238094D01*
X111992914Y-28238094D02*
X112183390Y-28285713D01*
X112183390Y-28285713D02*
X112564342Y-28285713D01*
X112564342Y-28285713D02*
X112659580Y-28238094D01*
X112659580Y-28238094D02*
X112707200Y-28190475D01*
X112707200Y-28190475D02*
X112754819Y-28095237D01*
X112754819Y-28095237D02*
X112754819Y-27904761D01*
X112754819Y-27904761D02*
X112707200Y-27809523D01*
X112707200Y-27809523D02*
X112659580Y-27761904D01*
X112659580Y-27761904D02*
X112564342Y-27714285D01*
X112564342Y-27714285D02*
X112326247Y-27714285D01*
X112326247Y-27714285D02*
X112231009Y-27761904D01*
X112231009Y-27761904D02*
X112183390Y-27809523D01*
X112183390Y-27809523D02*
X112135771Y-27904761D01*
X112135771Y-27904761D02*
X112135771Y-28095237D01*
X112135771Y-28095237D02*
X112183390Y-28190475D01*
X112183390Y-28190475D02*
X112231009Y-28238094D01*
X112231009Y-28238094D02*
X112326247Y-28285713D01*
X116238095Y-22454819D02*
X116238095Y-23264342D01*
X116238095Y-23264342D02*
X116285714Y-23359580D01*
X116285714Y-23359580D02*
X116333333Y-23407200D01*
X116333333Y-23407200D02*
X116428571Y-23454819D01*
X116428571Y-23454819D02*
X116619047Y-23454819D01*
X116619047Y-23454819D02*
X116714285Y-23407200D01*
X116714285Y-23407200D02*
X116761904Y-23359580D01*
X116761904Y-23359580D02*
X116809523Y-23264342D01*
X116809523Y-23264342D02*
X116809523Y-22454819D01*
X117238095Y-22550057D02*
X117285714Y-22502438D01*
X117285714Y-22502438D02*
X117380952Y-22454819D01*
X117380952Y-22454819D02*
X117619047Y-22454819D01*
X117619047Y-22454819D02*
X117714285Y-22502438D01*
X117714285Y-22502438D02*
X117761904Y-22550057D01*
X117761904Y-22550057D02*
X117809523Y-22645295D01*
X117809523Y-22645295D02*
X117809523Y-22740533D01*
X117809523Y-22740533D02*
X117761904Y-22883390D01*
X117761904Y-22883390D02*
X117190476Y-23454819D01*
X117190476Y-23454819D02*
X117809523Y-23454819D01*
X143761905Y-22954819D02*
X143761905Y-21954819D01*
X143761905Y-21954819D02*
X144000000Y-21954819D01*
X144000000Y-21954819D02*
X144142857Y-22002438D01*
X144142857Y-22002438D02*
X144238095Y-22097676D01*
X144238095Y-22097676D02*
X144285714Y-22192914D01*
X144285714Y-22192914D02*
X144333333Y-22383390D01*
X144333333Y-22383390D02*
X144333333Y-22526247D01*
X144333333Y-22526247D02*
X144285714Y-22716723D01*
X144285714Y-22716723D02*
X144238095Y-22811961D01*
X144238095Y-22811961D02*
X144142857Y-22907200D01*
X144142857Y-22907200D02*
X144000000Y-22954819D01*
X144000000Y-22954819D02*
X143761905Y-22954819D01*
X145285714Y-22954819D02*
X144714286Y-22954819D01*
X145000000Y-22954819D02*
X145000000Y-21954819D01*
X145000000Y-21954819D02*
X144904762Y-22097676D01*
X144904762Y-22097676D02*
X144809524Y-22192914D01*
X144809524Y-22192914D02*
X144714286Y-22240533D01*
X124902030Y-79609580D02*
X124854411Y-79657200D01*
X124854411Y-79657200D02*
X124711554Y-79704819D01*
X124711554Y-79704819D02*
X124616316Y-79704819D01*
X124616316Y-79704819D02*
X124473459Y-79657200D01*
X124473459Y-79657200D02*
X124378221Y-79561961D01*
X124378221Y-79561961D02*
X124330602Y-79466723D01*
X124330602Y-79466723D02*
X124282983Y-79276247D01*
X124282983Y-79276247D02*
X124282983Y-79133390D01*
X124282983Y-79133390D02*
X124330602Y-78942914D01*
X124330602Y-78942914D02*
X124378221Y-78847676D01*
X124378221Y-78847676D02*
X124473459Y-78752438D01*
X124473459Y-78752438D02*
X124616316Y-78704819D01*
X124616316Y-78704819D02*
X124711554Y-78704819D01*
X124711554Y-78704819D02*
X124854411Y-78752438D01*
X124854411Y-78752438D02*
X124902030Y-78800057D01*
X125854411Y-79704819D02*
X125282983Y-79704819D01*
X125568697Y-79704819D02*
X125568697Y-78704819D01*
X125568697Y-78704819D02*
X125473459Y-78847676D01*
X125473459Y-78847676D02*
X125378221Y-78942914D01*
X125378221Y-78942914D02*
X125282983Y-78990533D01*
X126711554Y-79038152D02*
X126711554Y-79704819D01*
X126473459Y-78657200D02*
X126235364Y-79371485D01*
X126235364Y-79371485D02*
X126854411Y-79371485D01*
X106904761Y-86050057D02*
X106809523Y-86002438D01*
X106809523Y-86002438D02*
X106714285Y-85907200D01*
X106714285Y-85907200D02*
X106571428Y-85764342D01*
X106571428Y-85764342D02*
X106476190Y-85716723D01*
X106476190Y-85716723D02*
X106380952Y-85716723D01*
X106428571Y-85954819D02*
X106333333Y-85907200D01*
X106333333Y-85907200D02*
X106238095Y-85811961D01*
X106238095Y-85811961D02*
X106190476Y-85621485D01*
X106190476Y-85621485D02*
X106190476Y-85288152D01*
X106190476Y-85288152D02*
X106238095Y-85097676D01*
X106238095Y-85097676D02*
X106333333Y-85002438D01*
X106333333Y-85002438D02*
X106428571Y-84954819D01*
X106428571Y-84954819D02*
X106619047Y-84954819D01*
X106619047Y-84954819D02*
X106714285Y-85002438D01*
X106714285Y-85002438D02*
X106809523Y-85097676D01*
X106809523Y-85097676D02*
X106857142Y-85288152D01*
X106857142Y-85288152D02*
X106857142Y-85621485D01*
X106857142Y-85621485D02*
X106809523Y-85811961D01*
X106809523Y-85811961D02*
X106714285Y-85907200D01*
X106714285Y-85907200D02*
X106619047Y-85954819D01*
X106619047Y-85954819D02*
X106428571Y-85954819D01*
X107809523Y-85954819D02*
X107238095Y-85954819D01*
X107523809Y-85954819D02*
X107523809Y-84954819D01*
X107523809Y-84954819D02*
X107428571Y-85097676D01*
X107428571Y-85097676D02*
X107333333Y-85192914D01*
X107333333Y-85192914D02*
X107238095Y-85240533D01*
X101761905Y-33954819D02*
X101761905Y-32954819D01*
X101761905Y-32954819D02*
X102000000Y-32954819D01*
X102000000Y-32954819D02*
X102142857Y-33002438D01*
X102142857Y-33002438D02*
X102238095Y-33097676D01*
X102238095Y-33097676D02*
X102285714Y-33192914D01*
X102285714Y-33192914D02*
X102333333Y-33383390D01*
X102333333Y-33383390D02*
X102333333Y-33526247D01*
X102333333Y-33526247D02*
X102285714Y-33716723D01*
X102285714Y-33716723D02*
X102238095Y-33811961D01*
X102238095Y-33811961D02*
X102142857Y-33907200D01*
X102142857Y-33907200D02*
X102000000Y-33954819D01*
X102000000Y-33954819D02*
X101761905Y-33954819D01*
X102714286Y-33050057D02*
X102761905Y-33002438D01*
X102761905Y-33002438D02*
X102857143Y-32954819D01*
X102857143Y-32954819D02*
X103095238Y-32954819D01*
X103095238Y-32954819D02*
X103190476Y-33002438D01*
X103190476Y-33002438D02*
X103238095Y-33050057D01*
X103238095Y-33050057D02*
X103285714Y-33145295D01*
X103285714Y-33145295D02*
X103285714Y-33240533D01*
X103285714Y-33240533D02*
X103238095Y-33383390D01*
X103238095Y-33383390D02*
X102666667Y-33954819D01*
X102666667Y-33954819D02*
X103285714Y-33954819D01*
X124324819Y-63481666D02*
X123848628Y-63814999D01*
X124324819Y-64053094D02*
X123324819Y-64053094D01*
X123324819Y-64053094D02*
X123324819Y-63672142D01*
X123324819Y-63672142D02*
X123372438Y-63576904D01*
X123372438Y-63576904D02*
X123420057Y-63529285D01*
X123420057Y-63529285D02*
X123515295Y-63481666D01*
X123515295Y-63481666D02*
X123658152Y-63481666D01*
X123658152Y-63481666D02*
X123753390Y-63529285D01*
X123753390Y-63529285D02*
X123801009Y-63576904D01*
X123801009Y-63576904D02*
X123848628Y-63672142D01*
X123848628Y-63672142D02*
X123848628Y-64053094D01*
X123324819Y-62624523D02*
X123324819Y-62814999D01*
X123324819Y-62814999D02*
X123372438Y-62910237D01*
X123372438Y-62910237D02*
X123420057Y-62957856D01*
X123420057Y-62957856D02*
X123562914Y-63053094D01*
X123562914Y-63053094D02*
X123753390Y-63100713D01*
X123753390Y-63100713D02*
X124134342Y-63100713D01*
X124134342Y-63100713D02*
X124229580Y-63053094D01*
X124229580Y-63053094D02*
X124277200Y-63005475D01*
X124277200Y-63005475D02*
X124324819Y-62910237D01*
X124324819Y-62910237D02*
X124324819Y-62719761D01*
X124324819Y-62719761D02*
X124277200Y-62624523D01*
X124277200Y-62624523D02*
X124229580Y-62576904D01*
X124229580Y-62576904D02*
X124134342Y-62529285D01*
X124134342Y-62529285D02*
X123896247Y-62529285D01*
X123896247Y-62529285D02*
X123801009Y-62576904D01*
X123801009Y-62576904D02*
X123753390Y-62624523D01*
X123753390Y-62624523D02*
X123705771Y-62719761D01*
X123705771Y-62719761D02*
X123705771Y-62910237D01*
X123705771Y-62910237D02*
X123753390Y-63005475D01*
X123753390Y-63005475D02*
X123801009Y-63053094D01*
X123801009Y-63053094D02*
X123896247Y-63100713D01*
X126608228Y-75102990D02*
X127084419Y-75102990D01*
X126084419Y-75436323D02*
X126608228Y-75102990D01*
X126608228Y-75102990D02*
X126084419Y-74769657D01*
X127084419Y-73912514D02*
X127084419Y-74483942D01*
X127084419Y-74198228D02*
X126084419Y-74198228D01*
X126084419Y-74198228D02*
X126227276Y-74293466D01*
X126227276Y-74293466D02*
X126322514Y-74388704D01*
X126322514Y-74388704D02*
X126370133Y-74483942D01*
X116743095Y-49084819D02*
X116743095Y-49894342D01*
X116743095Y-49894342D02*
X116790714Y-49989580D01*
X116790714Y-49989580D02*
X116838333Y-50037200D01*
X116838333Y-50037200D02*
X116933571Y-50084819D01*
X116933571Y-50084819D02*
X117124047Y-50084819D01*
X117124047Y-50084819D02*
X117219285Y-50037200D01*
X117219285Y-50037200D02*
X117266904Y-49989580D01*
X117266904Y-49989580D02*
X117314523Y-49894342D01*
X117314523Y-49894342D02*
X117314523Y-49084819D01*
X118219285Y-49418152D02*
X118219285Y-50084819D01*
X117981190Y-49037200D02*
X117743095Y-49751485D01*
X117743095Y-49751485D02*
X118362142Y-49751485D01*
X104333333Y-77059819D02*
X104000000Y-76583628D01*
X103761905Y-77059819D02*
X103761905Y-76059819D01*
X103761905Y-76059819D02*
X104142857Y-76059819D01*
X104142857Y-76059819D02*
X104238095Y-76107438D01*
X104238095Y-76107438D02*
X104285714Y-76155057D01*
X104285714Y-76155057D02*
X104333333Y-76250295D01*
X104333333Y-76250295D02*
X104333333Y-76393152D01*
X104333333Y-76393152D02*
X104285714Y-76488390D01*
X104285714Y-76488390D02*
X104238095Y-76536009D01*
X104238095Y-76536009D02*
X104142857Y-76583628D01*
X104142857Y-76583628D02*
X103761905Y-76583628D01*
X104904762Y-76488390D02*
X104809524Y-76440771D01*
X104809524Y-76440771D02*
X104761905Y-76393152D01*
X104761905Y-76393152D02*
X104714286Y-76297914D01*
X104714286Y-76297914D02*
X104714286Y-76250295D01*
X104714286Y-76250295D02*
X104761905Y-76155057D01*
X104761905Y-76155057D02*
X104809524Y-76107438D01*
X104809524Y-76107438D02*
X104904762Y-76059819D01*
X104904762Y-76059819D02*
X105095238Y-76059819D01*
X105095238Y-76059819D02*
X105190476Y-76107438D01*
X105190476Y-76107438D02*
X105238095Y-76155057D01*
X105238095Y-76155057D02*
X105285714Y-76250295D01*
X105285714Y-76250295D02*
X105285714Y-76297914D01*
X105285714Y-76297914D02*
X105238095Y-76393152D01*
X105238095Y-76393152D02*
X105190476Y-76440771D01*
X105190476Y-76440771D02*
X105095238Y-76488390D01*
X105095238Y-76488390D02*
X104904762Y-76488390D01*
X104904762Y-76488390D02*
X104809524Y-76536009D01*
X104809524Y-76536009D02*
X104761905Y-76583628D01*
X104761905Y-76583628D02*
X104714286Y-76678866D01*
X104714286Y-76678866D02*
X104714286Y-76869342D01*
X104714286Y-76869342D02*
X104761905Y-76964580D01*
X104761905Y-76964580D02*
X104809524Y-77012200D01*
X104809524Y-77012200D02*
X104904762Y-77059819D01*
X104904762Y-77059819D02*
X105095238Y-77059819D01*
X105095238Y-77059819D02*
X105190476Y-77012200D01*
X105190476Y-77012200D02*
X105238095Y-76964580D01*
X105238095Y-76964580D02*
X105285714Y-76869342D01*
X105285714Y-76869342D02*
X105285714Y-76678866D01*
X105285714Y-76678866D02*
X105238095Y-76583628D01*
X105238095Y-76583628D02*
X105190476Y-76536009D01*
X105190476Y-76536009D02*
X105095238Y-76488390D01*
X116833333Y-72319819D02*
X116500000Y-71843628D01*
X116261905Y-72319819D02*
X116261905Y-71319819D01*
X116261905Y-71319819D02*
X116642857Y-71319819D01*
X116642857Y-71319819D02*
X116738095Y-71367438D01*
X116738095Y-71367438D02*
X116785714Y-71415057D01*
X116785714Y-71415057D02*
X116833333Y-71510295D01*
X116833333Y-71510295D02*
X116833333Y-71653152D01*
X116833333Y-71653152D02*
X116785714Y-71748390D01*
X116785714Y-71748390D02*
X116738095Y-71796009D01*
X116738095Y-71796009D02*
X116642857Y-71843628D01*
X116642857Y-71843628D02*
X116261905Y-71843628D01*
X117166667Y-71319819D02*
X117833333Y-71319819D01*
X117833333Y-71319819D02*
X117404762Y-72319819D01*
X99833333Y-48319819D02*
X99500000Y-47843628D01*
X99261905Y-48319819D02*
X99261905Y-47319819D01*
X99261905Y-47319819D02*
X99642857Y-47319819D01*
X99642857Y-47319819D02*
X99738095Y-47367438D01*
X99738095Y-47367438D02*
X99785714Y-47415057D01*
X99785714Y-47415057D02*
X99833333Y-47510295D01*
X99833333Y-47510295D02*
X99833333Y-47653152D01*
X99833333Y-47653152D02*
X99785714Y-47748390D01*
X99785714Y-47748390D02*
X99738095Y-47796009D01*
X99738095Y-47796009D02*
X99642857Y-47843628D01*
X99642857Y-47843628D02*
X99261905Y-47843628D01*
X100738095Y-47319819D02*
X100261905Y-47319819D01*
X100261905Y-47319819D02*
X100214286Y-47796009D01*
X100214286Y-47796009D02*
X100261905Y-47748390D01*
X100261905Y-47748390D02*
X100357143Y-47700771D01*
X100357143Y-47700771D02*
X100595238Y-47700771D01*
X100595238Y-47700771D02*
X100690476Y-47748390D01*
X100690476Y-47748390D02*
X100738095Y-47796009D01*
X100738095Y-47796009D02*
X100785714Y-47891247D01*
X100785714Y-47891247D02*
X100785714Y-48129342D01*
X100785714Y-48129342D02*
X100738095Y-48224580D01*
X100738095Y-48224580D02*
X100690476Y-48272200D01*
X100690476Y-48272200D02*
X100595238Y-48319819D01*
X100595238Y-48319819D02*
X100357143Y-48319819D01*
X100357143Y-48319819D02*
X100261905Y-48272200D01*
X100261905Y-48272200D02*
X100214286Y-48224580D01*
X153333333Y-24084819D02*
X153000000Y-23608628D01*
X152761905Y-24084819D02*
X152761905Y-23084819D01*
X152761905Y-23084819D02*
X153142857Y-23084819D01*
X153142857Y-23084819D02*
X153238095Y-23132438D01*
X153238095Y-23132438D02*
X153285714Y-23180057D01*
X153285714Y-23180057D02*
X153333333Y-23275295D01*
X153333333Y-23275295D02*
X153333333Y-23418152D01*
X153333333Y-23418152D02*
X153285714Y-23513390D01*
X153285714Y-23513390D02*
X153238095Y-23561009D01*
X153238095Y-23561009D02*
X153142857Y-23608628D01*
X153142857Y-23608628D02*
X152761905Y-23608628D01*
X153714286Y-23180057D02*
X153761905Y-23132438D01*
X153761905Y-23132438D02*
X153857143Y-23084819D01*
X153857143Y-23084819D02*
X154095238Y-23084819D01*
X154095238Y-23084819D02*
X154190476Y-23132438D01*
X154190476Y-23132438D02*
X154238095Y-23180057D01*
X154238095Y-23180057D02*
X154285714Y-23275295D01*
X154285714Y-23275295D02*
X154285714Y-23370533D01*
X154285714Y-23370533D02*
X154238095Y-23513390D01*
X154238095Y-23513390D02*
X153666667Y-24084819D01*
X153666667Y-24084819D02*
X154285714Y-24084819D01*
X131824819Y-59166666D02*
X131348628Y-59499999D01*
X131824819Y-59738094D02*
X130824819Y-59738094D01*
X130824819Y-59738094D02*
X130824819Y-59357142D01*
X130824819Y-59357142D02*
X130872438Y-59261904D01*
X130872438Y-59261904D02*
X130920057Y-59214285D01*
X130920057Y-59214285D02*
X131015295Y-59166666D01*
X131015295Y-59166666D02*
X131158152Y-59166666D01*
X131158152Y-59166666D02*
X131253390Y-59214285D01*
X131253390Y-59214285D02*
X131301009Y-59261904D01*
X131301009Y-59261904D02*
X131348628Y-59357142D01*
X131348628Y-59357142D02*
X131348628Y-59738094D01*
X131824819Y-58214285D02*
X131824819Y-58785713D01*
X131824819Y-58499999D02*
X130824819Y-58499999D01*
X130824819Y-58499999D02*
X130967676Y-58595237D01*
X130967676Y-58595237D02*
X131062914Y-58690475D01*
X131062914Y-58690475D02*
X131110533Y-58785713D01*
X141954819Y-31166666D02*
X141954819Y-31642856D01*
X141954819Y-31642856D02*
X140954819Y-31642856D01*
X141954819Y-30309523D02*
X141954819Y-30880951D01*
X141954819Y-30595237D02*
X140954819Y-30595237D01*
X140954819Y-30595237D02*
X141097676Y-30690475D01*
X141097676Y-30690475D02*
X141192914Y-30785713D01*
X141192914Y-30785713D02*
X141240533Y-30880951D01*
X91454819Y-61833333D02*
X92169104Y-61833333D01*
X92169104Y-61833333D02*
X92311961Y-61880952D01*
X92311961Y-61880952D02*
X92407200Y-61976190D01*
X92407200Y-61976190D02*
X92454819Y-62119047D01*
X92454819Y-62119047D02*
X92454819Y-62214285D01*
X91788152Y-60928571D02*
X92454819Y-60928571D01*
X91407200Y-61166666D02*
X92121485Y-61404761D01*
X92121485Y-61404761D02*
X92121485Y-60785714D01*
X92944819Y-48648333D02*
X93659104Y-48648333D01*
X93659104Y-48648333D02*
X93801961Y-48695952D01*
X93801961Y-48695952D02*
X93897200Y-48791190D01*
X93897200Y-48791190D02*
X93944819Y-48934047D01*
X93944819Y-48934047D02*
X93944819Y-49029285D01*
X92944819Y-48267380D02*
X92944819Y-47648333D01*
X92944819Y-47648333D02*
X93325771Y-47981666D01*
X93325771Y-47981666D02*
X93325771Y-47838809D01*
X93325771Y-47838809D02*
X93373390Y-47743571D01*
X93373390Y-47743571D02*
X93421009Y-47695952D01*
X93421009Y-47695952D02*
X93516247Y-47648333D01*
X93516247Y-47648333D02*
X93754342Y-47648333D01*
X93754342Y-47648333D02*
X93849580Y-47695952D01*
X93849580Y-47695952D02*
X93897200Y-47743571D01*
X93897200Y-47743571D02*
X93944819Y-47838809D01*
X93944819Y-47838809D02*
X93944819Y-48124523D01*
X93944819Y-48124523D02*
X93897200Y-48219761D01*
X93897200Y-48219761D02*
X93849580Y-48267380D01*
X85216666Y-38204819D02*
X85216666Y-38919104D01*
X85216666Y-38919104D02*
X85169047Y-39061961D01*
X85169047Y-39061961D02*
X85073809Y-39157200D01*
X85073809Y-39157200D02*
X84930952Y-39204819D01*
X84930952Y-39204819D02*
X84835714Y-39204819D01*
X86216666Y-39204819D02*
X85645238Y-39204819D01*
X85930952Y-39204819D02*
X85930952Y-38204819D01*
X85930952Y-38204819D02*
X85835714Y-38347676D01*
X85835714Y-38347676D02*
X85740476Y-38442914D01*
X85740476Y-38442914D02*
X85645238Y-38490533D01*
X105666666Y-69666009D02*
X105333333Y-69666009D01*
X105333333Y-70189819D02*
X105333333Y-69189819D01*
X105333333Y-69189819D02*
X105809523Y-69189819D01*
X106714285Y-70189819D02*
X106142857Y-70189819D01*
X106428571Y-70189819D02*
X106428571Y-69189819D01*
X106428571Y-69189819D02*
X106333333Y-69332676D01*
X106333333Y-69332676D02*
X106238095Y-69427914D01*
X106238095Y-69427914D02*
X106142857Y-69475533D01*
X99261905Y-58689819D02*
X99261905Y-57689819D01*
X99261905Y-57689819D02*
X99500000Y-57689819D01*
X99500000Y-57689819D02*
X99642857Y-57737438D01*
X99642857Y-57737438D02*
X99738095Y-57832676D01*
X99738095Y-57832676D02*
X99785714Y-57927914D01*
X99785714Y-57927914D02*
X99833333Y-58118390D01*
X99833333Y-58118390D02*
X99833333Y-58261247D01*
X99833333Y-58261247D02*
X99785714Y-58451723D01*
X99785714Y-58451723D02*
X99738095Y-58546961D01*
X99738095Y-58546961D02*
X99642857Y-58642200D01*
X99642857Y-58642200D02*
X99500000Y-58689819D01*
X99500000Y-58689819D02*
X99261905Y-58689819D01*
X100690476Y-57689819D02*
X100500000Y-57689819D01*
X100500000Y-57689819D02*
X100404762Y-57737438D01*
X100404762Y-57737438D02*
X100357143Y-57785057D01*
X100357143Y-57785057D02*
X100261905Y-57927914D01*
X100261905Y-57927914D02*
X100214286Y-58118390D01*
X100214286Y-58118390D02*
X100214286Y-58499342D01*
X100214286Y-58499342D02*
X100261905Y-58594580D01*
X100261905Y-58594580D02*
X100309524Y-58642200D01*
X100309524Y-58642200D02*
X100404762Y-58689819D01*
X100404762Y-58689819D02*
X100595238Y-58689819D01*
X100595238Y-58689819D02*
X100690476Y-58642200D01*
X100690476Y-58642200D02*
X100738095Y-58594580D01*
X100738095Y-58594580D02*
X100785714Y-58499342D01*
X100785714Y-58499342D02*
X100785714Y-58261247D01*
X100785714Y-58261247D02*
X100738095Y-58166009D01*
X100738095Y-58166009D02*
X100690476Y-58118390D01*
X100690476Y-58118390D02*
X100595238Y-58070771D01*
X100595238Y-58070771D02*
X100404762Y-58070771D01*
X100404762Y-58070771D02*
X100309524Y-58118390D01*
X100309524Y-58118390D02*
X100261905Y-58166009D01*
X100261905Y-58166009D02*
X100214286Y-58261247D01*
X112761905Y-83159819D02*
X112761905Y-82159819D01*
X112761905Y-82159819D02*
X113000000Y-82159819D01*
X113000000Y-82159819D02*
X113142857Y-82207438D01*
X113142857Y-82207438D02*
X113238095Y-82302676D01*
X113238095Y-82302676D02*
X113285714Y-82397914D01*
X113285714Y-82397914D02*
X113333333Y-82588390D01*
X113333333Y-82588390D02*
X113333333Y-82731247D01*
X113333333Y-82731247D02*
X113285714Y-82921723D01*
X113285714Y-82921723D02*
X113238095Y-83016961D01*
X113238095Y-83016961D02*
X113142857Y-83112200D01*
X113142857Y-83112200D02*
X113000000Y-83159819D01*
X113000000Y-83159819D02*
X112761905Y-83159819D01*
X114238095Y-82159819D02*
X113761905Y-82159819D01*
X113761905Y-82159819D02*
X113714286Y-82636009D01*
X113714286Y-82636009D02*
X113761905Y-82588390D01*
X113761905Y-82588390D02*
X113857143Y-82540771D01*
X113857143Y-82540771D02*
X114095238Y-82540771D01*
X114095238Y-82540771D02*
X114190476Y-82588390D01*
X114190476Y-82588390D02*
X114238095Y-82636009D01*
X114238095Y-82636009D02*
X114285714Y-82731247D01*
X114285714Y-82731247D02*
X114285714Y-82969342D01*
X114285714Y-82969342D02*
X114238095Y-83064580D01*
X114238095Y-83064580D02*
X114190476Y-83112200D01*
X114190476Y-83112200D02*
X114095238Y-83159819D01*
X114095238Y-83159819D02*
X113857143Y-83159819D01*
X113857143Y-83159819D02*
X113761905Y-83112200D01*
X113761905Y-83112200D02*
X113714286Y-83064580D01*
X118318095Y-82789819D02*
X118318095Y-81789819D01*
X118889523Y-82789819D02*
X118460952Y-82218390D01*
X118889523Y-81789819D02*
X118318095Y-82361247D01*
X112954819Y-34738094D02*
X111954819Y-34738094D01*
X111954819Y-34738094D02*
X111954819Y-34499999D01*
X111954819Y-34499999D02*
X112002438Y-34357142D01*
X112002438Y-34357142D02*
X112097676Y-34261904D01*
X112097676Y-34261904D02*
X112192914Y-34214285D01*
X112192914Y-34214285D02*
X112383390Y-34166666D01*
X112383390Y-34166666D02*
X112526247Y-34166666D01*
X112526247Y-34166666D02*
X112716723Y-34214285D01*
X112716723Y-34214285D02*
X112811961Y-34261904D01*
X112811961Y-34261904D02*
X112907200Y-34357142D01*
X112907200Y-34357142D02*
X112954819Y-34499999D01*
X112954819Y-34499999D02*
X112954819Y-34738094D01*
X112288152Y-33309523D02*
X112954819Y-33309523D01*
X111907200Y-33547618D02*
X112621485Y-33785713D01*
X112621485Y-33785713D02*
X112621485Y-33166666D01*
X111059580Y-54377857D02*
X111107200Y-54425476D01*
X111107200Y-54425476D02*
X111154819Y-54568333D01*
X111154819Y-54568333D02*
X111154819Y-54663571D01*
X111154819Y-54663571D02*
X111107200Y-54806428D01*
X111107200Y-54806428D02*
X111011961Y-54901666D01*
X111011961Y-54901666D02*
X110916723Y-54949285D01*
X110916723Y-54949285D02*
X110726247Y-54996904D01*
X110726247Y-54996904D02*
X110583390Y-54996904D01*
X110583390Y-54996904D02*
X110392914Y-54949285D01*
X110392914Y-54949285D02*
X110297676Y-54901666D01*
X110297676Y-54901666D02*
X110202438Y-54806428D01*
X110202438Y-54806428D02*
X110154819Y-54663571D01*
X110154819Y-54663571D02*
X110154819Y-54568333D01*
X110154819Y-54568333D02*
X110202438Y-54425476D01*
X110202438Y-54425476D02*
X110250057Y-54377857D01*
X111154819Y-53425476D02*
X111154819Y-53996904D01*
X111154819Y-53711190D02*
X110154819Y-53711190D01*
X110154819Y-53711190D02*
X110297676Y-53806428D01*
X110297676Y-53806428D02*
X110392914Y-53901666D01*
X110392914Y-53901666D02*
X110440533Y-53996904D01*
X110154819Y-52520714D02*
X110154819Y-52996904D01*
X110154819Y-52996904D02*
X110631009Y-53044523D01*
X110631009Y-53044523D02*
X110583390Y-52996904D01*
X110583390Y-52996904D02*
X110535771Y-52901666D01*
X110535771Y-52901666D02*
X110535771Y-52663571D01*
X110535771Y-52663571D02*
X110583390Y-52568333D01*
X110583390Y-52568333D02*
X110631009Y-52520714D01*
X110631009Y-52520714D02*
X110726247Y-52473095D01*
X110726247Y-52473095D02*
X110964342Y-52473095D01*
X110964342Y-52473095D02*
X111059580Y-52520714D01*
X111059580Y-52520714D02*
X111107200Y-52568333D01*
X111107200Y-52568333D02*
X111154819Y-52663571D01*
X111154819Y-52663571D02*
X111154819Y-52901666D01*
X111154819Y-52901666D02*
X111107200Y-52996904D01*
X111107200Y-52996904D02*
X111059580Y-53044523D01*
X98059580Y-74877857D02*
X98107200Y-74925476D01*
X98107200Y-74925476D02*
X98154819Y-75068333D01*
X98154819Y-75068333D02*
X98154819Y-75163571D01*
X98154819Y-75163571D02*
X98107200Y-75306428D01*
X98107200Y-75306428D02*
X98011961Y-75401666D01*
X98011961Y-75401666D02*
X97916723Y-75449285D01*
X97916723Y-75449285D02*
X97726247Y-75496904D01*
X97726247Y-75496904D02*
X97583390Y-75496904D01*
X97583390Y-75496904D02*
X97392914Y-75449285D01*
X97392914Y-75449285D02*
X97297676Y-75401666D01*
X97297676Y-75401666D02*
X97202438Y-75306428D01*
X97202438Y-75306428D02*
X97154819Y-75163571D01*
X97154819Y-75163571D02*
X97154819Y-75068333D01*
X97154819Y-75068333D02*
X97202438Y-74925476D01*
X97202438Y-74925476D02*
X97250057Y-74877857D01*
X98154819Y-73925476D02*
X98154819Y-74496904D01*
X98154819Y-74211190D02*
X97154819Y-74211190D01*
X97154819Y-74211190D02*
X97297676Y-74306428D01*
X97297676Y-74306428D02*
X97392914Y-74401666D01*
X97392914Y-74401666D02*
X97440533Y-74496904D01*
X97154819Y-73592142D02*
X97154819Y-72973095D01*
X97154819Y-72973095D02*
X97535771Y-73306428D01*
X97535771Y-73306428D02*
X97535771Y-73163571D01*
X97535771Y-73163571D02*
X97583390Y-73068333D01*
X97583390Y-73068333D02*
X97631009Y-73020714D01*
X97631009Y-73020714D02*
X97726247Y-72973095D01*
X97726247Y-72973095D02*
X97964342Y-72973095D01*
X97964342Y-72973095D02*
X98059580Y-73020714D01*
X98059580Y-73020714D02*
X98107200Y-73068333D01*
X98107200Y-73068333D02*
X98154819Y-73163571D01*
X98154819Y-73163571D02*
X98154819Y-73449285D01*
X98154819Y-73449285D02*
X98107200Y-73544523D01*
X98107200Y-73544523D02*
X98059580Y-73592142D01*
X128357142Y-51559580D02*
X128309523Y-51607200D01*
X128309523Y-51607200D02*
X128166666Y-51654819D01*
X128166666Y-51654819D02*
X128071428Y-51654819D01*
X128071428Y-51654819D02*
X127928571Y-51607200D01*
X127928571Y-51607200D02*
X127833333Y-51511961D01*
X127833333Y-51511961D02*
X127785714Y-51416723D01*
X127785714Y-51416723D02*
X127738095Y-51226247D01*
X127738095Y-51226247D02*
X127738095Y-51083390D01*
X127738095Y-51083390D02*
X127785714Y-50892914D01*
X127785714Y-50892914D02*
X127833333Y-50797676D01*
X127833333Y-50797676D02*
X127928571Y-50702438D01*
X127928571Y-50702438D02*
X128071428Y-50654819D01*
X128071428Y-50654819D02*
X128166666Y-50654819D01*
X128166666Y-50654819D02*
X128309523Y-50702438D01*
X128309523Y-50702438D02*
X128357142Y-50750057D01*
X129309523Y-51654819D02*
X128738095Y-51654819D01*
X129023809Y-51654819D02*
X129023809Y-50654819D01*
X129023809Y-50654819D02*
X128928571Y-50797676D01*
X128928571Y-50797676D02*
X128833333Y-50892914D01*
X128833333Y-50892914D02*
X128738095Y-50940533D01*
X129690476Y-50750057D02*
X129738095Y-50702438D01*
X129738095Y-50702438D02*
X129833333Y-50654819D01*
X129833333Y-50654819D02*
X130071428Y-50654819D01*
X130071428Y-50654819D02*
X130166666Y-50702438D01*
X130166666Y-50702438D02*
X130214285Y-50750057D01*
X130214285Y-50750057D02*
X130261904Y-50845295D01*
X130261904Y-50845295D02*
X130261904Y-50940533D01*
X130261904Y-50940533D02*
X130214285Y-51083390D01*
X130214285Y-51083390D02*
X129642857Y-51654819D01*
X129642857Y-51654819D02*
X130261904Y-51654819D01*
X139833333Y-45159580D02*
X139785714Y-45207200D01*
X139785714Y-45207200D02*
X139642857Y-45254819D01*
X139642857Y-45254819D02*
X139547619Y-45254819D01*
X139547619Y-45254819D02*
X139404762Y-45207200D01*
X139404762Y-45207200D02*
X139309524Y-45111961D01*
X139309524Y-45111961D02*
X139261905Y-45016723D01*
X139261905Y-45016723D02*
X139214286Y-44826247D01*
X139214286Y-44826247D02*
X139214286Y-44683390D01*
X139214286Y-44683390D02*
X139261905Y-44492914D01*
X139261905Y-44492914D02*
X139309524Y-44397676D01*
X139309524Y-44397676D02*
X139404762Y-44302438D01*
X139404762Y-44302438D02*
X139547619Y-44254819D01*
X139547619Y-44254819D02*
X139642857Y-44254819D01*
X139642857Y-44254819D02*
X139785714Y-44302438D01*
X139785714Y-44302438D02*
X139833333Y-44350057D01*
X140309524Y-45254819D02*
X140500000Y-45254819D01*
X140500000Y-45254819D02*
X140595238Y-45207200D01*
X140595238Y-45207200D02*
X140642857Y-45159580D01*
X140642857Y-45159580D02*
X140738095Y-45016723D01*
X140738095Y-45016723D02*
X140785714Y-44826247D01*
X140785714Y-44826247D02*
X140785714Y-44445295D01*
X140785714Y-44445295D02*
X140738095Y-44350057D01*
X140738095Y-44350057D02*
X140690476Y-44302438D01*
X140690476Y-44302438D02*
X140595238Y-44254819D01*
X140595238Y-44254819D02*
X140404762Y-44254819D01*
X140404762Y-44254819D02*
X140309524Y-44302438D01*
X140309524Y-44302438D02*
X140261905Y-44350057D01*
X140261905Y-44350057D02*
X140214286Y-44445295D01*
X140214286Y-44445295D02*
X140214286Y-44683390D01*
X140214286Y-44683390D02*
X140261905Y-44778628D01*
X140261905Y-44778628D02*
X140309524Y-44826247D01*
X140309524Y-44826247D02*
X140404762Y-44873866D01*
X140404762Y-44873866D02*
X140595238Y-44873866D01*
X140595238Y-44873866D02*
X140690476Y-44826247D01*
X140690476Y-44826247D02*
X140738095Y-44778628D01*
X140738095Y-44778628D02*
X140785714Y-44683390D01*
X152859580Y-38666666D02*
X152907200Y-38714285D01*
X152907200Y-38714285D02*
X152954819Y-38857142D01*
X152954819Y-38857142D02*
X152954819Y-38952380D01*
X152954819Y-38952380D02*
X152907200Y-39095237D01*
X152907200Y-39095237D02*
X152811961Y-39190475D01*
X152811961Y-39190475D02*
X152716723Y-39238094D01*
X152716723Y-39238094D02*
X152526247Y-39285713D01*
X152526247Y-39285713D02*
X152383390Y-39285713D01*
X152383390Y-39285713D02*
X152192914Y-39238094D01*
X152192914Y-39238094D02*
X152097676Y-39190475D01*
X152097676Y-39190475D02*
X152002438Y-39095237D01*
X152002438Y-39095237D02*
X151954819Y-38952380D01*
X151954819Y-38952380D02*
X151954819Y-38857142D01*
X151954819Y-38857142D02*
X152002438Y-38714285D01*
X152002438Y-38714285D02*
X152050057Y-38666666D01*
X151954819Y-38333332D02*
X151954819Y-37666666D01*
X151954819Y-37666666D02*
X152954819Y-38095237D01*
X113609580Y-39916666D02*
X113657200Y-39964285D01*
X113657200Y-39964285D02*
X113704819Y-40107142D01*
X113704819Y-40107142D02*
X113704819Y-40202380D01*
X113704819Y-40202380D02*
X113657200Y-40345237D01*
X113657200Y-40345237D02*
X113561961Y-40440475D01*
X113561961Y-40440475D02*
X113466723Y-40488094D01*
X113466723Y-40488094D02*
X113276247Y-40535713D01*
X113276247Y-40535713D02*
X113133390Y-40535713D01*
X113133390Y-40535713D02*
X112942914Y-40488094D01*
X112942914Y-40488094D02*
X112847676Y-40440475D01*
X112847676Y-40440475D02*
X112752438Y-40345237D01*
X112752438Y-40345237D02*
X112704819Y-40202380D01*
X112704819Y-40202380D02*
X112704819Y-40107142D01*
X112704819Y-40107142D02*
X112752438Y-39964285D01*
X112752438Y-39964285D02*
X112800057Y-39916666D01*
X113133390Y-39345237D02*
X113085771Y-39440475D01*
X113085771Y-39440475D02*
X113038152Y-39488094D01*
X113038152Y-39488094D02*
X112942914Y-39535713D01*
X112942914Y-39535713D02*
X112895295Y-39535713D01*
X112895295Y-39535713D02*
X112800057Y-39488094D01*
X112800057Y-39488094D02*
X112752438Y-39440475D01*
X112752438Y-39440475D02*
X112704819Y-39345237D01*
X112704819Y-39345237D02*
X112704819Y-39154761D01*
X112704819Y-39154761D02*
X112752438Y-39059523D01*
X112752438Y-39059523D02*
X112800057Y-39011904D01*
X112800057Y-39011904D02*
X112895295Y-38964285D01*
X112895295Y-38964285D02*
X112942914Y-38964285D01*
X112942914Y-38964285D02*
X113038152Y-39011904D01*
X113038152Y-39011904D02*
X113085771Y-39059523D01*
X113085771Y-39059523D02*
X113133390Y-39154761D01*
X113133390Y-39154761D02*
X113133390Y-39345237D01*
X113133390Y-39345237D02*
X113181009Y-39440475D01*
X113181009Y-39440475D02*
X113228628Y-39488094D01*
X113228628Y-39488094D02*
X113323866Y-39535713D01*
X113323866Y-39535713D02*
X113514342Y-39535713D01*
X113514342Y-39535713D02*
X113609580Y-39488094D01*
X113609580Y-39488094D02*
X113657200Y-39440475D01*
X113657200Y-39440475D02*
X113704819Y-39345237D01*
X113704819Y-39345237D02*
X113704819Y-39154761D01*
X113704819Y-39154761D02*
X113657200Y-39059523D01*
X113657200Y-39059523D02*
X113609580Y-39011904D01*
X113609580Y-39011904D02*
X113514342Y-38964285D01*
X113514342Y-38964285D02*
X113323866Y-38964285D01*
X113323866Y-38964285D02*
X113228628Y-39011904D01*
X113228628Y-39011904D02*
X113181009Y-39059523D01*
X113181009Y-39059523D02*
X113133390Y-39154761D01*
X101714286Y-41954819D02*
X102285714Y-41954819D01*
X102000000Y-42954819D02*
X102000000Y-41954819D01*
X102619048Y-42954819D02*
X102619048Y-41954819D01*
X102619048Y-42431009D02*
X103190476Y-42431009D01*
X103190476Y-42954819D02*
X103190476Y-41954819D01*
X104190476Y-42954819D02*
X103619048Y-42954819D01*
X103904762Y-42954819D02*
X103904762Y-41954819D01*
X103904762Y-41954819D02*
X103809524Y-42097676D01*
X103809524Y-42097676D02*
X103714286Y-42192914D01*
X103714286Y-42192914D02*
X103619048Y-42240533D01*
X139048095Y-49084819D02*
X139048095Y-49894342D01*
X139048095Y-49894342D02*
X139095714Y-49989580D01*
X139095714Y-49989580D02*
X139143333Y-50037200D01*
X139143333Y-50037200D02*
X139238571Y-50084819D01*
X139238571Y-50084819D02*
X139429047Y-50084819D01*
X139429047Y-50084819D02*
X139524285Y-50037200D01*
X139524285Y-50037200D02*
X139571904Y-49989580D01*
X139571904Y-49989580D02*
X139619523Y-49894342D01*
X139619523Y-49894342D02*
X139619523Y-49084819D01*
X140619523Y-50084819D02*
X140048095Y-50084819D01*
X140333809Y-50084819D02*
X140333809Y-49084819D01*
X140333809Y-49084819D02*
X140238571Y-49227676D01*
X140238571Y-49227676D02*
X140143333Y-49322914D01*
X140143333Y-49322914D02*
X140048095Y-49370533D01*
X157333333Y-73359580D02*
X157285714Y-73407200D01*
X157285714Y-73407200D02*
X157142857Y-73454819D01*
X157142857Y-73454819D02*
X157047619Y-73454819D01*
X157047619Y-73454819D02*
X156904762Y-73407200D01*
X156904762Y-73407200D02*
X156809524Y-73311961D01*
X156809524Y-73311961D02*
X156761905Y-73216723D01*
X156761905Y-73216723D02*
X156714286Y-73026247D01*
X156714286Y-73026247D02*
X156714286Y-72883390D01*
X156714286Y-72883390D02*
X156761905Y-72692914D01*
X156761905Y-72692914D02*
X156809524Y-72597676D01*
X156809524Y-72597676D02*
X156904762Y-72502438D01*
X156904762Y-72502438D02*
X157047619Y-72454819D01*
X157047619Y-72454819D02*
X157142857Y-72454819D01*
X157142857Y-72454819D02*
X157285714Y-72502438D01*
X157285714Y-72502438D02*
X157333333Y-72550057D01*
X157666667Y-72454819D02*
X158285714Y-72454819D01*
X158285714Y-72454819D02*
X157952381Y-72835771D01*
X157952381Y-72835771D02*
X158095238Y-72835771D01*
X158095238Y-72835771D02*
X158190476Y-72883390D01*
X158190476Y-72883390D02*
X158238095Y-72931009D01*
X158238095Y-72931009D02*
X158285714Y-73026247D01*
X158285714Y-73026247D02*
X158285714Y-73264342D01*
X158285714Y-73264342D02*
X158238095Y-73359580D01*
X158238095Y-73359580D02*
X158190476Y-73407200D01*
X158190476Y-73407200D02*
X158095238Y-73454819D01*
X158095238Y-73454819D02*
X157809524Y-73454819D01*
X157809524Y-73454819D02*
X157714286Y-73407200D01*
X157714286Y-73407200D02*
X157666667Y-73359580D01*
D11*
%TO.C,J2*%
X161976400Y-74805800D02*
X161976400Y-43835800D01*
X171556400Y-74805800D02*
X161976400Y-74805800D01*
X161082062Y-54030800D02*
X161082062Y-53530800D01*
X161515075Y-53780800D02*
X161082062Y-54030800D01*
X161082062Y-53530800D02*
X161515075Y-53780800D01*
X161976400Y-43835800D02*
X171556400Y-43835800D01*
%TO.C,D3*%
X160455000Y-35830000D02*
X163545000Y-35830000D01*
X160455170Y-35830000D02*
G75*
G02*
X162000000Y-30280000I1544830J2560000D01*
G01*
X162000000Y-30280000D02*
G75*
G02*
X163544830Y-35830000I0J-2990000D01*
G01*
X164500000Y-33270000D02*
G75*
G02*
X159500000Y-33270000I-2500000J0D01*
G01*
X159500000Y-33270000D02*
G75*
G02*
X164500000Y-33270000I2500000J0D01*
G01*
%TO.C,C5*%
X150471200Y-80532000D02*
X155011200Y-80532000D01*
X150471200Y-80588000D02*
X150471200Y-80532000D01*
X155011200Y-82616000D02*
X155011200Y-82672000D01*
X155011200Y-82672000D02*
X150471200Y-82672000D01*
%TO.C,C1*%
X150471200Y-74532000D02*
X155011200Y-74532000D01*
X150471200Y-74588000D02*
X150471200Y-74532000D01*
X155011200Y-76616000D02*
X155011200Y-76672000D01*
X155011200Y-76672000D02*
X150471200Y-76672000D01*
%TO.C,C4*%
X150471200Y-77532000D02*
X155011200Y-77532000D01*
X150471200Y-77588000D02*
X150471200Y-77532000D01*
X155011200Y-79616000D02*
X155011200Y-79672000D01*
X155011200Y-79672000D02*
X150471200Y-79672000D01*
%TO.C,C2*%
X155011200Y-70672000D02*
X150471200Y-70672000D01*
X155011200Y-70616000D02*
X155011200Y-70672000D01*
X150471200Y-68588000D02*
X150471200Y-68532000D01*
X150471200Y-68532000D02*
X155011200Y-68532000D01*
%TO.C,C11*%
X157002452Y-54837000D02*
X156479948Y-54837000D01*
X157002452Y-53367000D02*
X156479948Y-53367000D01*
%TO.C,C10*%
X153052452Y-54837000D02*
X152529948Y-54837000D01*
X153052452Y-53367000D02*
X152529948Y-53367000D01*
%TO.C,U3*%
X159301200Y-61102000D02*
X159301200Y-59152000D01*
X159301200Y-61102000D02*
X159301200Y-63052000D01*
X149181200Y-61102000D02*
X149181200Y-59152000D01*
X149181200Y-61102000D02*
X149181200Y-63052000D01*
X159601200Y-58567000D02*
X159271200Y-58327000D01*
X159601200Y-58087000D01*
X159601200Y-58567000D01*
G36*
X159601200Y-58567000D02*
G01*
X159271200Y-58327000D01*
X159601200Y-58087000D01*
X159601200Y-58567000D01*
G37*
%TO.C,SW1*%
X148950800Y-45173200D02*
X148950800Y-46673200D01*
X150200800Y-49173200D02*
X154700800Y-49173200D01*
X154700800Y-42673200D02*
X150200800Y-42673200D01*
X155950800Y-46673200D02*
X155950800Y-45173200D01*
%TO.C,C6*%
X115570000Y-26230000D02*
X115570000Y-30770000D01*
X115514000Y-26230000D02*
X115570000Y-26230000D01*
X113486000Y-30770000D02*
X113430000Y-30770000D01*
X113430000Y-30770000D02*
X113430000Y-26230000D01*
%TO.C,U2*%
X128410000Y-24510000D02*
X126160000Y-24510000D01*
X128410000Y-19890000D02*
X128410000Y-24510000D01*
X127185000Y-24510000D02*
X127185000Y-27146000D01*
X126215000Y-24510000D02*
X126215000Y-27146000D01*
X125150000Y-19890000D02*
X125150000Y-21270000D01*
X123840000Y-24510000D02*
X122760000Y-24510000D01*
X123785000Y-24510000D02*
X123785000Y-27146000D01*
X122815000Y-24510000D02*
X122815000Y-27146000D01*
X121450000Y-19890000D02*
X121450000Y-21270000D01*
X120440000Y-24510000D02*
X118190000Y-24510000D01*
X120385000Y-24510000D02*
X120385000Y-27040000D01*
X119415000Y-24510000D02*
X119415000Y-27040000D01*
X118190000Y-24510000D02*
X118190000Y-19890000D01*
X118190000Y-21270000D02*
X128410000Y-21270000D01*
X118190000Y-19890000D02*
X128410000Y-19890000D01*
%TO.C,D1*%
X143110000Y-24310000D02*
X132890000Y-24310000D01*
X143110000Y-19690000D02*
X143110000Y-24310000D01*
X139850000Y-19690000D02*
X139850000Y-21070000D01*
X136150000Y-19690000D02*
X136150000Y-21070000D01*
X132890000Y-24310000D02*
X132890000Y-19690000D01*
X132890000Y-21070000D02*
X143110000Y-21070000D01*
X132890000Y-19690000D02*
X143110000Y-19690000D01*
%TO.C,C14*%
X128164888Y-83000000D02*
G75*
G02*
X122924888Y-83000000I-2620000J0D01*
G01*
X122924888Y-83000000D02*
G75*
G02*
X128164888Y-83000000I2620000J0D01*
G01*
X128144888Y-82717000D02*
X128144888Y-83283000D01*
X128104888Y-82483000D02*
X128104888Y-83517000D01*
X128064888Y-82323000D02*
X128064888Y-83677000D01*
X128024888Y-82195000D02*
X128024888Y-83805000D01*
X127984888Y-82086000D02*
X127984888Y-83914000D01*
X127944888Y-81989000D02*
X127944888Y-84011000D01*
X127904888Y-81902000D02*
X127904888Y-84098000D01*
X127864888Y-81823000D02*
X127864888Y-84177000D01*
X127824888Y-84040000D02*
X127824888Y-84251000D01*
X127824888Y-81749000D02*
X127824888Y-81960000D01*
X127784888Y-84040000D02*
X127784888Y-84319000D01*
X127784888Y-81681000D02*
X127784888Y-81960000D01*
X127744888Y-84040000D02*
X127744888Y-84383000D01*
X127744888Y-81617000D02*
X127744888Y-81960000D01*
X127704888Y-84040000D02*
X127704888Y-84443000D01*
X127704888Y-81557000D02*
X127704888Y-81960000D01*
X127664888Y-84040000D02*
X127664888Y-84499000D01*
X127664888Y-81501000D02*
X127664888Y-81960000D01*
X127624888Y-84040000D02*
X127624888Y-84553000D01*
X127624888Y-81447000D02*
X127624888Y-81960000D01*
X127584888Y-84040000D02*
X127584888Y-84604000D01*
X127584888Y-81396000D02*
X127584888Y-81960000D01*
X127544888Y-84040000D02*
X127544888Y-84652000D01*
X127544888Y-81348000D02*
X127544888Y-81960000D01*
X127504888Y-84040000D02*
X127504888Y-84699000D01*
X127504888Y-81301000D02*
X127504888Y-81960000D01*
X127464888Y-84040000D02*
X127464888Y-84743000D01*
X127464888Y-81257000D02*
X127464888Y-81960000D01*
X127424888Y-84040000D02*
X127424888Y-84785000D01*
X127424888Y-81215000D02*
X127424888Y-81960000D01*
X127384888Y-84040000D02*
X127384888Y-84825000D01*
X127384888Y-81175000D02*
X127384888Y-81960000D01*
X127344888Y-84040000D02*
X127344888Y-84864000D01*
X127344888Y-81136000D02*
X127344888Y-81960000D01*
X127304888Y-84040000D02*
X127304888Y-84901000D01*
X127304888Y-81099000D02*
X127304888Y-81960000D01*
X127264888Y-84040000D02*
X127264888Y-84936000D01*
X127264888Y-81064000D02*
X127264888Y-81960000D01*
X127224888Y-84040000D02*
X127224888Y-84970000D01*
X127224888Y-81030000D02*
X127224888Y-81960000D01*
X127184888Y-84040000D02*
X127184888Y-85003000D01*
X127184888Y-80997000D02*
X127184888Y-81960000D01*
X127144888Y-84040000D02*
X127144888Y-85035000D01*
X127144888Y-80965000D02*
X127144888Y-81960000D01*
X127104888Y-84040000D02*
X127104888Y-85065000D01*
X127104888Y-80935000D02*
X127104888Y-81960000D01*
X127064888Y-84040000D02*
X127064888Y-85094000D01*
X127064888Y-80906000D02*
X127064888Y-81960000D01*
X127024888Y-84040000D02*
X127024888Y-85122000D01*
X127024888Y-80878000D02*
X127024888Y-81960000D01*
X126984888Y-84040000D02*
X126984888Y-85149000D01*
X126984888Y-80851000D02*
X126984888Y-81960000D01*
X126944888Y-84040000D02*
X126944888Y-85175000D01*
X126944888Y-80825000D02*
X126944888Y-81960000D01*
X126904888Y-84040000D02*
X126904888Y-85199000D01*
X126904888Y-80801000D02*
X126904888Y-81960000D01*
X126864888Y-84040000D02*
X126864888Y-85223000D01*
X126864888Y-80777000D02*
X126864888Y-81960000D01*
X126824888Y-84040000D02*
X126824888Y-85246000D01*
X126824888Y-80754000D02*
X126824888Y-81960000D01*
X126784888Y-84040000D02*
X126784888Y-85268000D01*
X126784888Y-80732000D02*
X126784888Y-81960000D01*
X126744888Y-84040000D02*
X126744888Y-85289000D01*
X126744888Y-80711000D02*
X126744888Y-81960000D01*
X126704888Y-84040000D02*
X126704888Y-85309000D01*
X126704888Y-80691000D02*
X126704888Y-81960000D01*
X126664888Y-84040000D02*
X126664888Y-85329000D01*
X126664888Y-80671000D02*
X126664888Y-81960000D01*
X126624888Y-84040000D02*
X126624888Y-85347000D01*
X126624888Y-80653000D02*
X126624888Y-81960000D01*
X126584888Y-84040000D02*
X126584888Y-85365000D01*
X126584888Y-80635000D02*
X126584888Y-81960000D01*
X126544888Y-84040000D02*
X126544888Y-85382000D01*
X126544888Y-80618000D02*
X126544888Y-81960000D01*
X126504888Y-84040000D02*
X126504888Y-85398000D01*
X126504888Y-80602000D02*
X126504888Y-81960000D01*
X126464888Y-84040000D02*
X126464888Y-85413000D01*
X126464888Y-80587000D02*
X126464888Y-81960000D01*
X126424888Y-84040000D02*
X126424888Y-85428000D01*
X126424888Y-80572000D02*
X126424888Y-81960000D01*
X126384888Y-84040000D02*
X126384888Y-85442000D01*
X126384888Y-80558000D02*
X126384888Y-81960000D01*
X126344888Y-84040000D02*
X126344888Y-85455000D01*
X126344888Y-80545000D02*
X126344888Y-81960000D01*
X126304888Y-84040000D02*
X126304888Y-85467000D01*
X126304888Y-80533000D02*
X126304888Y-81960000D01*
X126264888Y-84040000D02*
X126264888Y-85479000D01*
X126264888Y-80521000D02*
X126264888Y-81960000D01*
X126224888Y-84040000D02*
X126224888Y-85490000D01*
X126224888Y-80510000D02*
X126224888Y-81960000D01*
X126184888Y-84040000D02*
X126184888Y-85501000D01*
X126184888Y-80499000D02*
X126184888Y-81960000D01*
X126144888Y-84040000D02*
X126144888Y-85510000D01*
X126144888Y-80490000D02*
X126144888Y-81960000D01*
X126104888Y-84040000D02*
X126104888Y-85519000D01*
X126104888Y-80481000D02*
X126104888Y-81960000D01*
X126064888Y-84040000D02*
X126064888Y-85528000D01*
X126064888Y-80472000D02*
X126064888Y-81960000D01*
X126024888Y-84040000D02*
X126024888Y-85536000D01*
X126024888Y-80464000D02*
X126024888Y-81960000D01*
X125984888Y-84040000D02*
X125984888Y-85543000D01*
X125984888Y-80457000D02*
X125984888Y-81960000D01*
X125944888Y-84040000D02*
X125944888Y-85549000D01*
X125944888Y-80451000D02*
X125944888Y-81960000D01*
X125904888Y-84040000D02*
X125904888Y-85555000D01*
X125904888Y-80445000D02*
X125904888Y-81960000D01*
X125864888Y-84040000D02*
X125864888Y-85560000D01*
X125864888Y-80440000D02*
X125864888Y-81960000D01*
X125824888Y-84040000D02*
X125824888Y-85565000D01*
X125824888Y-80435000D02*
X125824888Y-81960000D01*
X125784888Y-84040000D02*
X125784888Y-85569000D01*
X125784888Y-80431000D02*
X125784888Y-81960000D01*
X125744888Y-80428000D02*
X125744888Y-85572000D01*
X125704888Y-80425000D02*
X125704888Y-85575000D01*
X125664888Y-80423000D02*
X125664888Y-85577000D01*
X125624888Y-80421000D02*
X125624888Y-85579000D01*
X125584888Y-80420000D02*
X125584888Y-85580000D01*
X125544888Y-80420000D02*
X125544888Y-85580000D01*
X122990113Y-81275000D02*
X122990113Y-81775000D01*
X122740113Y-81525000D02*
X123240113Y-81525000D01*
%TO.C,Q1*%
X95430000Y-83640000D02*
X105650000Y-83640000D01*
X95430000Y-88260000D02*
X95430000Y-83640000D01*
X98690000Y-88260000D02*
X98690000Y-86880000D01*
X102390000Y-88260000D02*
X102390000Y-86880000D01*
X105650000Y-83640000D02*
X105650000Y-88260000D01*
X105650000Y-86880000D02*
X95430000Y-86880000D01*
X105650000Y-88260000D02*
X95430000Y-88260000D01*
%TO.C,D2*%
X106160000Y-28350000D02*
X100350000Y-28350000D01*
X106160000Y-32650000D02*
X100350000Y-32650000D01*
X106160000Y-32650000D02*
X106160000Y-28350000D01*
%TO.C,R6*%
X122870000Y-60045000D02*
X120130000Y-60045000D01*
X120130000Y-66585000D01*
X122870000Y-66585000D01*
X122870000Y-60045000D01*
X121500000Y-67355000D02*
X121500000Y-66585000D01*
X121500000Y-59275000D02*
X121500000Y-60045000D01*
%TO.C,Y1*%
X127714600Y-77826800D02*
X127714600Y-71426800D01*
X132584600Y-71426800D02*
X132584600Y-77826800D01*
X132584600Y-77826800D02*
G75*
G02*
X127714600Y-77826800I-2435000J0D01*
G01*
X127714600Y-71426800D02*
G75*
G02*
X132584600Y-71426800I2435000J0D01*
G01*
%TO.C,U4*%
X114855000Y-50630000D02*
X114855000Y-55830000D01*
X114855000Y-55830000D02*
X120155000Y-55830000D01*
X116505000Y-50630000D02*
X114855000Y-50630000D01*
X120155000Y-50630000D02*
X118505000Y-50630000D01*
X120155000Y-55830000D02*
X120155000Y-50630000D01*
X118505000Y-50630000D02*
G75*
G02*
X116505000Y-50630000I-1000000J0D01*
G01*
%TO.C,R8*%
X108540000Y-74235000D02*
X107770000Y-74235000D01*
X100460000Y-74235000D02*
X101230000Y-74235000D01*
X107770000Y-75605000D02*
X101230000Y-75605000D01*
X101230000Y-72865000D01*
X107770000Y-72865000D01*
X107770000Y-75605000D01*
%TO.C,R7*%
X112960000Y-74235000D02*
X113730000Y-74235000D01*
X121040000Y-74235000D02*
X120270000Y-74235000D01*
X113730000Y-72865000D02*
X120270000Y-72865000D01*
X120270000Y-75605000D01*
X113730000Y-75605000D01*
X113730000Y-72865000D01*
%TO.C,R5*%
X95960000Y-50235000D02*
X96730000Y-50235000D01*
X104040000Y-50235000D02*
X103270000Y-50235000D01*
X96730000Y-48865000D02*
X103270000Y-48865000D01*
X103270000Y-51605000D01*
X96730000Y-51605000D01*
X96730000Y-48865000D01*
%TO.C,R2*%
X149460000Y-26000000D02*
X150230000Y-26000000D01*
X157540000Y-26000000D02*
X156770000Y-26000000D01*
X150230000Y-24630000D02*
X156770000Y-24630000D01*
X156770000Y-27370000D01*
X150230000Y-27370000D01*
X150230000Y-24630000D01*
%TO.C,R1*%
X129000000Y-54960000D02*
X129000000Y-55730000D01*
X129000000Y-63040000D02*
X129000000Y-62270000D01*
X130370000Y-55730000D02*
X127630000Y-55730000D01*
X127630000Y-62270000D01*
X130370000Y-62270000D01*
X130370000Y-55730000D01*
%TO.C,L1*%
X141870000Y-35500000D02*
G75*
G02*
X129130000Y-35500000I-6370000J0D01*
G01*
X129130000Y-35500000D02*
G75*
G02*
X141870000Y-35500000I6370000J0D01*
G01*
%TO.C,J4*%
X92800000Y-62820000D02*
X80200000Y-62820000D01*
X80200000Y-62820000D02*
X80200000Y-73170000D01*
X88000000Y-73170000D02*
X87700000Y-73670000D01*
X82600000Y-73170000D02*
X88000000Y-73170000D01*
X81150000Y-73170000D02*
X80900000Y-73670000D01*
X80200000Y-73170000D02*
X81150000Y-73170000D01*
X92800000Y-73670000D02*
X92800000Y-62820000D01*
X87700000Y-73670000D02*
X92800000Y-73670000D01*
X82850000Y-73670000D02*
X82600000Y-73170000D01*
X82800000Y-73670000D02*
X82850000Y-73670000D01*
X80900000Y-73670000D02*
X82800000Y-73670000D01*
%TO.C,J3*%
X92800000Y-47585000D02*
X80200000Y-47585000D01*
X80200000Y-47585000D02*
X80200000Y-57935000D01*
X88000000Y-57935000D02*
X87700000Y-58435000D01*
X82600000Y-57935000D02*
X88000000Y-57935000D01*
X81150000Y-57935000D02*
X80900000Y-58435000D01*
X80200000Y-57935000D02*
X81150000Y-57935000D01*
X92800000Y-58435000D02*
X92800000Y-47585000D01*
X87700000Y-58435000D02*
X92800000Y-58435000D01*
X82850000Y-58435000D02*
X82600000Y-57935000D01*
X82800000Y-58435000D02*
X82850000Y-58435000D01*
X80900000Y-58435000D02*
X82800000Y-58435000D01*
%TO.C,J1*%
X80200000Y-28400000D02*
X94900000Y-28400000D01*
X80200000Y-37600000D02*
X80200000Y-28400000D01*
X89000000Y-37600000D02*
X80200000Y-37600000D01*
X94050000Y-28200000D02*
X95100000Y-28200000D01*
X94900000Y-28400000D02*
X94900000Y-31000000D01*
X94900000Y-34900000D02*
X94900000Y-37600000D01*
X94900000Y-37600000D02*
X93000000Y-37600000D01*
X95100000Y-29250000D02*
X95100000Y-28200000D01*
%TO.C,F1*%
X116970000Y-62695000D02*
X116970000Y-67775000D01*
X116200000Y-67775000D02*
X116970000Y-67775000D01*
X116200000Y-62695000D02*
X116970000Y-62695000D01*
X111970000Y-67775000D02*
X113600000Y-67775000D01*
X111970000Y-67775000D02*
X111970000Y-62695000D01*
X111970000Y-62695000D02*
X113600000Y-62695000D01*
X100030000Y-67775000D02*
X100030000Y-62695000D01*
X100030000Y-67735000D02*
X111970000Y-67735000D01*
X100030000Y-62735000D02*
X111970000Y-62735000D01*
X98400000Y-67775000D02*
X100030000Y-67775000D01*
X98400000Y-62695000D02*
X100030000Y-62695000D01*
X95800000Y-67775000D02*
X95030000Y-67775000D01*
X95800000Y-62695000D02*
X95030000Y-62695000D01*
X95030000Y-67775000D02*
X95030000Y-62695000D01*
%TO.C,D6*%
X103510000Y-57385000D02*
X103510000Y-54085000D01*
X103510000Y-57385000D02*
X98000000Y-57385000D01*
X103510000Y-54085000D02*
X98000000Y-54085000D01*
%TO.C,D5*%
X117240000Y-80235000D02*
X116220000Y-80235000D01*
X115440000Y-81705000D02*
X115440000Y-78765000D01*
X115320000Y-81705000D02*
X115320000Y-78765000D01*
X115200000Y-81705000D02*
X115200000Y-78765000D01*
X109760000Y-80235000D02*
X110780000Y-80235000D01*
X116220000Y-81705000D02*
X110780000Y-81705000D01*
X110780000Y-78765000D01*
X116220000Y-78765000D01*
X116220000Y-81705000D01*
%TO.C,D4*%
X111650000Y-30490000D02*
X108350000Y-30490000D01*
X111650000Y-30490000D02*
X111650000Y-36000000D01*
X108350000Y-30490000D02*
X108350000Y-36000000D01*
%TO.C,C15*%
X109570000Y-51465000D02*
X109570000Y-56005000D01*
X109514000Y-51465000D02*
X109570000Y-51465000D01*
X107486000Y-56005000D02*
X107430000Y-56005000D01*
X107430000Y-56005000D02*
X107430000Y-51465000D01*
%TO.C,C13*%
X96570000Y-71965000D02*
X96570000Y-76505000D01*
X96514000Y-71965000D02*
X96570000Y-71965000D01*
X94486000Y-76505000D02*
X94430000Y-76505000D01*
X94430000Y-76505000D02*
X94430000Y-71965000D01*
%TO.C,C12*%
X131270000Y-50070000D02*
X126730000Y-50070000D01*
X131270000Y-50014000D02*
X131270000Y-50070000D01*
X126730000Y-47986000D02*
X126730000Y-47930000D01*
X126730000Y-47930000D02*
X131270000Y-47930000D01*
%TO.C,C9*%
X137730000Y-45930000D02*
X142270000Y-45930000D01*
X137730000Y-45986000D02*
X137730000Y-45930000D01*
X142270000Y-48014000D02*
X142270000Y-48070000D01*
X142270000Y-48070000D02*
X137730000Y-48070000D01*
%TO.C,C7*%
X145685000Y-39312349D02*
X145685000Y-38512349D01*
X145285000Y-38912349D02*
X146085000Y-38912349D01*
X143920000Y-34902651D02*
X152080000Y-34902651D01*
X143920000Y-34862651D02*
X152080000Y-34862651D01*
X143921000Y-34822651D02*
X152079000Y-34822651D01*
X143922000Y-34782651D02*
X152078000Y-34782651D01*
X143923000Y-34742651D02*
X152077000Y-34742651D01*
X143925000Y-34702651D02*
X152075000Y-34702651D01*
X143927000Y-34662651D02*
X152073000Y-34662651D01*
X143930000Y-34622651D02*
X152070000Y-34622651D01*
X143932000Y-34582651D02*
X152068000Y-34582651D01*
X143936000Y-34542651D02*
X152064000Y-34542651D01*
X143939000Y-34502651D02*
X152061000Y-34502651D01*
X143944000Y-34462651D02*
X152056000Y-34462651D01*
X143948000Y-34422651D02*
X152052000Y-34422651D01*
X143953000Y-34382651D02*
X152047000Y-34382651D01*
X143958000Y-34342651D02*
X152042000Y-34342651D01*
X143964000Y-34302651D02*
X152036000Y-34302651D01*
X143970000Y-34262651D02*
X152030000Y-34262651D01*
X143977000Y-34222651D02*
X152023000Y-34222651D01*
X143983000Y-34182651D02*
X152017000Y-34182651D01*
X143991000Y-34142651D02*
X152009000Y-34142651D01*
X143998000Y-34102651D02*
X152002000Y-34102651D01*
X144007000Y-34062651D02*
X151993000Y-34062651D01*
X144015000Y-34022651D02*
X151985000Y-34022651D01*
X144024000Y-33982651D02*
X151976000Y-33982651D01*
X144033000Y-33942651D02*
X151967000Y-33942651D01*
X144043000Y-33902651D02*
X151957000Y-33902651D01*
X144053000Y-33862651D02*
X151947000Y-33862651D01*
X144064000Y-33822651D02*
X151936000Y-33822651D01*
X144075000Y-33782651D02*
X151925000Y-33782651D01*
X144087000Y-33742651D02*
X151913000Y-33742651D01*
X144099000Y-33702651D02*
X151901000Y-33702651D01*
X144111000Y-33662651D02*
X151889000Y-33662651D01*
X144124000Y-33622651D02*
X151876000Y-33622651D01*
X144137000Y-33582651D02*
X151863000Y-33582651D01*
X144151000Y-33542651D02*
X151849000Y-33542651D01*
X144165000Y-33502651D02*
X151835000Y-33502651D01*
X144180000Y-33462651D02*
X151820000Y-33462651D01*
X144195000Y-33422651D02*
X146960000Y-33422651D01*
X149040000Y-33422651D02*
X151805000Y-33422651D01*
X144211000Y-33382651D02*
X146960000Y-33382651D01*
X149040000Y-33382651D02*
X151789000Y-33382651D01*
X144227000Y-33342651D02*
X146960000Y-33342651D01*
X149040000Y-33342651D02*
X151773000Y-33342651D01*
X144243000Y-33302651D02*
X146960000Y-33302651D01*
X149040000Y-33302651D02*
X151757000Y-33302651D01*
X144260000Y-33262651D02*
X146960000Y-33262651D01*
X149040000Y-33262651D02*
X151740000Y-33262651D01*
X144278000Y-33222651D02*
X146960000Y-33222651D01*
X149040000Y-33222651D02*
X151722000Y-33222651D01*
X144296000Y-33182651D02*
X146960000Y-33182651D01*
X149040000Y-33182651D02*
X151704000Y-33182651D01*
X144315000Y-33142651D02*
X146960000Y-33142651D01*
X149040000Y-33142651D02*
X151685000Y-33142651D01*
X144334000Y-33102651D02*
X146960000Y-33102651D01*
X149040000Y-33102651D02*
X151666000Y-33102651D01*
X144354000Y-33062651D02*
X146960000Y-33062651D01*
X149040000Y-33062651D02*
X151646000Y-33062651D01*
X144374000Y-33022651D02*
X146960000Y-33022651D01*
X149040000Y-33022651D02*
X151626000Y-33022651D01*
X144395000Y-32982651D02*
X146960000Y-32982651D01*
X149040000Y-32982651D02*
X151605000Y-32982651D01*
X144416000Y-32942651D02*
X146960000Y-32942651D01*
X149040000Y-32942651D02*
X151584000Y-32942651D01*
X144438000Y-32902651D02*
X146960000Y-32902651D01*
X149040000Y-32902651D02*
X151562000Y-32902651D01*
X144461000Y-32862651D02*
X146960000Y-32862651D01*
X149040000Y-32862651D02*
X151539000Y-32862651D01*
X144484000Y-32822651D02*
X146960000Y-32822651D01*
X149040000Y-32822651D02*
X151516000Y-32822651D01*
X144507000Y-32782651D02*
X146960000Y-32782651D01*
X149040000Y-32782651D02*
X151493000Y-32782651D01*
X144532000Y-32742651D02*
X146960000Y-32742651D01*
X149040000Y-32742651D02*
X151468000Y-32742651D01*
X144557000Y-32702651D02*
X146960000Y-32702651D01*
X149040000Y-32702651D02*
X151443000Y-32702651D01*
X144582000Y-32662651D02*
X146960000Y-32662651D01*
X149040000Y-32662651D02*
X151418000Y-32662651D01*
X144608000Y-32622651D02*
X146960000Y-32622651D01*
X149040000Y-32622651D02*
X151392000Y-32622651D01*
X144635000Y-32582651D02*
X146960000Y-32582651D01*
X149040000Y-32582651D02*
X151365000Y-32582651D01*
X144663000Y-32542651D02*
X146960000Y-32542651D01*
X149040000Y-32542651D02*
X151337000Y-32542651D01*
X144691000Y-32502651D02*
X146960000Y-32502651D01*
X149040000Y-32502651D02*
X151309000Y-32502651D01*
X144720000Y-32462651D02*
X146960000Y-32462651D01*
X149040000Y-32462651D02*
X151280000Y-32462651D01*
X144750000Y-32422651D02*
X146960000Y-32422651D01*
X149040000Y-32422651D02*
X151250000Y-32422651D01*
X144781000Y-32382651D02*
X146960000Y-32382651D01*
X149040000Y-32382651D02*
X151219000Y-32382651D01*
X144812000Y-32342651D02*
X146960000Y-32342651D01*
X149040000Y-32342651D02*
X151188000Y-32342651D01*
X144844000Y-32302651D02*
X146960000Y-32302651D01*
X149040000Y-32302651D02*
X151156000Y-32302651D01*
X144877000Y-32262651D02*
X146960000Y-32262651D01*
X149040000Y-32262651D02*
X151123000Y-32262651D01*
X144911000Y-32222651D02*
X146960000Y-32222651D01*
X149040000Y-32222651D02*
X151089000Y-32222651D01*
X144945000Y-32182651D02*
X146960000Y-32182651D01*
X149040000Y-32182651D02*
X151055000Y-32182651D01*
X144981000Y-32142651D02*
X146960000Y-32142651D01*
X149040000Y-32142651D02*
X151019000Y-32142651D01*
X145018000Y-32102651D02*
X146960000Y-32102651D01*
X149040000Y-32102651D02*
X150982000Y-32102651D01*
X145055000Y-32062651D02*
X146960000Y-32062651D01*
X149040000Y-32062651D02*
X150945000Y-32062651D01*
X145094000Y-32022651D02*
X146960000Y-32022651D01*
X149040000Y-32022651D02*
X150906000Y-32022651D01*
X145133000Y-31982651D02*
X146960000Y-31982651D01*
X149040000Y-31982651D02*
X150867000Y-31982651D01*
X145174000Y-31942651D02*
X146960000Y-31942651D01*
X149040000Y-31942651D02*
X150826000Y-31942651D01*
X145216000Y-31902651D02*
X146960000Y-31902651D01*
X149040000Y-31902651D02*
X150784000Y-31902651D01*
X145259000Y-31862651D02*
X146960000Y-31862651D01*
X149040000Y-31862651D02*
X150741000Y-31862651D01*
X145304000Y-31822651D02*
X146960000Y-31822651D01*
X149040000Y-31822651D02*
X150696000Y-31822651D01*
X145349000Y-31782651D02*
X146960000Y-31782651D01*
X149040000Y-31782651D02*
X150651000Y-31782651D01*
X145396000Y-31742651D02*
X146960000Y-31742651D01*
X149040000Y-31742651D02*
X150604000Y-31742651D01*
X145445000Y-31702651D02*
X146960000Y-31702651D01*
X149040000Y-31702651D02*
X150555000Y-31702651D01*
X145495000Y-31662651D02*
X146960000Y-31662651D01*
X149040000Y-31662651D02*
X150505000Y-31662651D01*
X145547000Y-31622651D02*
X146960000Y-31622651D01*
X149040000Y-31622651D02*
X150453000Y-31622651D01*
X145600000Y-31582651D02*
X146960000Y-31582651D01*
X149040000Y-31582651D02*
X150400000Y-31582651D01*
X145656000Y-31542651D02*
X146960000Y-31542651D01*
X149040000Y-31542651D02*
X150344000Y-31542651D01*
X145713000Y-31502651D02*
X146960000Y-31502651D01*
X149040000Y-31502651D02*
X150287000Y-31502651D01*
X145773000Y-31462651D02*
X146960000Y-31462651D01*
X149040000Y-31462651D02*
X150227000Y-31462651D01*
X145835000Y-31422651D02*
X146960000Y-31422651D01*
X149040000Y-31422651D02*
X150165000Y-31422651D01*
X145899000Y-31382651D02*
X146960000Y-31382651D01*
X149040000Y-31382651D02*
X150101000Y-31382651D01*
X145966000Y-31342651D02*
X150034000Y-31342651D01*
X146036000Y-31302651D02*
X149964000Y-31302651D01*
X146110000Y-31262651D02*
X149890000Y-31262651D01*
X146187000Y-31222651D02*
X149813000Y-31222651D01*
X146269000Y-31182651D02*
X149731000Y-31182651D01*
X146356000Y-31142651D02*
X149644000Y-31142651D01*
X146448000Y-31102651D02*
X149552000Y-31102651D01*
X146547000Y-31062651D02*
X149453000Y-31062651D01*
X146654000Y-31022651D02*
X149346000Y-31022651D01*
X146772000Y-30982651D02*
X149228000Y-30982651D01*
X146903000Y-30942651D02*
X149097000Y-30942651D01*
X147053000Y-30902651D02*
X148947000Y-30902651D01*
X147232000Y-30862651D02*
X148768000Y-30862651D01*
X147467000Y-30822651D02*
X148533000Y-30822651D01*
X152120000Y-34902651D02*
G75*
G02*
X143880000Y-34902651I-4120000J0D01*
G01*
X143880000Y-34902651D02*
G75*
G02*
X152120000Y-34902651I4120000J0D01*
G01*
%TO.C,C8*%
X117285000Y-46834569D02*
X117285000Y-45534569D01*
X116635000Y-46184569D02*
X117935000Y-46184569D01*
X114420000Y-39750000D02*
X127580000Y-39750000D01*
X114420000Y-39710000D02*
X127580000Y-39710000D01*
X114420000Y-39670000D02*
X127580000Y-39670000D01*
X114421000Y-39630000D02*
X127579000Y-39630000D01*
X114422000Y-39590000D02*
X127578000Y-39590000D01*
X114423000Y-39550000D02*
X127577000Y-39550000D01*
X114424000Y-39510000D02*
X127576000Y-39510000D01*
X114426000Y-39470000D02*
X127574000Y-39470000D01*
X114428000Y-39430000D02*
X127572000Y-39430000D01*
X114430000Y-39390000D02*
X127570000Y-39390000D01*
X114432000Y-39350000D02*
X127568000Y-39350000D01*
X114435000Y-39310000D02*
X127565000Y-39310000D01*
X114437000Y-39270000D02*
X127563000Y-39270000D01*
X114440000Y-39230000D02*
X127560000Y-39230000D01*
X114444000Y-39190000D02*
X127556000Y-39190000D01*
X114447000Y-39150000D02*
X127553000Y-39150000D01*
X114451000Y-39110000D02*
X127549000Y-39110000D01*
X114455000Y-39070000D02*
X127545000Y-39070000D01*
X114459000Y-39030000D02*
X127541000Y-39030000D01*
X114464000Y-38990000D02*
X127536000Y-38990000D01*
X114469000Y-38950000D02*
X127531000Y-38950000D01*
X114474000Y-38910000D02*
X127526000Y-38910000D01*
X114479000Y-38870000D02*
X127521000Y-38870000D01*
X114484000Y-38830000D02*
X127516000Y-38830000D01*
X114490000Y-38790000D02*
X127510000Y-38790000D01*
X114496000Y-38750000D02*
X127504000Y-38750000D01*
X114502000Y-38710000D02*
X127498000Y-38710000D01*
X114509000Y-38670000D02*
X127491000Y-38670000D01*
X114515000Y-38630000D02*
X127485000Y-38630000D01*
X114522000Y-38590000D02*
X127478000Y-38590000D01*
X114530000Y-38550000D02*
X127470000Y-38550000D01*
X114537000Y-38510000D02*
X127463000Y-38510000D01*
X114545000Y-38470000D02*
X127455000Y-38470000D01*
X114553000Y-38430000D02*
X127447000Y-38430000D01*
X114561000Y-38390000D02*
X127439000Y-38390000D01*
X114570000Y-38350000D02*
X127430000Y-38350000D01*
X114579000Y-38310000D02*
X127421000Y-38310000D01*
X114588000Y-38270000D02*
X127412000Y-38270000D01*
X114597000Y-38230000D02*
X127403000Y-38230000D01*
X114606000Y-38190000D02*
X127394000Y-38190000D01*
X114616000Y-38150000D02*
X127384000Y-38150000D01*
X114626000Y-38110000D02*
X127374000Y-38110000D01*
X114637000Y-38070000D02*
X127363000Y-38070000D01*
X114647000Y-38030000D02*
X127353000Y-38030000D01*
X114658000Y-37990000D02*
X127342000Y-37990000D01*
X114669000Y-37950000D02*
X127331000Y-37950000D01*
X114681000Y-37910000D02*
X127319000Y-37910000D01*
X114693000Y-37870000D02*
X127307000Y-37870000D01*
X114705000Y-37830000D02*
X127295000Y-37830000D01*
X114717000Y-37790000D02*
X127283000Y-37790000D01*
X114729000Y-37750000D02*
X127271000Y-37750000D01*
X114742000Y-37710000D02*
X127258000Y-37710000D01*
X114755000Y-37670000D02*
X127245000Y-37670000D01*
X114769000Y-37630000D02*
X127231000Y-37630000D01*
X114782000Y-37590000D02*
X127218000Y-37590000D01*
X114796000Y-37550000D02*
X127204000Y-37550000D01*
X114810000Y-37510000D02*
X127190000Y-37510000D01*
X114825000Y-37470000D02*
X127175000Y-37470000D01*
X114840000Y-37430000D02*
X119560000Y-37430000D01*
X122440000Y-37430000D02*
X127160000Y-37430000D01*
X114855000Y-37390000D02*
X119560000Y-37390000D01*
X122440000Y-37390000D02*
X127145000Y-37390000D01*
X114870000Y-37350000D02*
X119560000Y-37350000D01*
X122440000Y-37350000D02*
X127130000Y-37350000D01*
X114886000Y-37310000D02*
X119560000Y-37310000D01*
X122440000Y-37310000D02*
X127114000Y-37310000D01*
X114902000Y-37270000D02*
X119560000Y-37270000D01*
X122440000Y-37270000D02*
X127098000Y-37270000D01*
X114918000Y-37230000D02*
X119560000Y-37230000D01*
X122440000Y-37230000D02*
X127082000Y-37230000D01*
X114935000Y-37190000D02*
X119560000Y-37190000D01*
X122440000Y-37190000D02*
X127065000Y-37190000D01*
X114952000Y-37150000D02*
X119560000Y-37150000D01*
X122440000Y-37150000D02*
X127048000Y-37150000D01*
X114969000Y-37110000D02*
X119560000Y-37110000D01*
X122440000Y-37110000D02*
X127031000Y-37110000D01*
X114987000Y-37070000D02*
X119560000Y-37070000D01*
X122440000Y-37070000D02*
X127013000Y-37070000D01*
X115005000Y-37030000D02*
X119560000Y-37030000D01*
X122440000Y-37030000D02*
X126995000Y-37030000D01*
X115023000Y-36990000D02*
X119560000Y-36990000D01*
X122440000Y-36990000D02*
X126977000Y-36990000D01*
X115041000Y-36950000D02*
X119560000Y-36950000D01*
X122440000Y-36950000D02*
X126959000Y-36950000D01*
X115060000Y-36910000D02*
X119560000Y-36910000D01*
X122440000Y-36910000D02*
X126940000Y-36910000D01*
X115079000Y-36870000D02*
X119560000Y-36870000D01*
X122440000Y-36870000D02*
X126921000Y-36870000D01*
X115099000Y-36830000D02*
X119560000Y-36830000D01*
X122440000Y-36830000D02*
X126901000Y-36830000D01*
X115119000Y-36790000D02*
X119560000Y-36790000D01*
X122440000Y-36790000D02*
X126881000Y-36790000D01*
X115139000Y-36750000D02*
X119560000Y-36750000D01*
X122440000Y-36750000D02*
X126861000Y-36750000D01*
X115159000Y-36710000D02*
X119560000Y-36710000D01*
X122440000Y-36710000D02*
X126841000Y-36710000D01*
X115180000Y-36670000D02*
X119560000Y-36670000D01*
X122440000Y-36670000D02*
X126820000Y-36670000D01*
X115201000Y-36630000D02*
X119560000Y-36630000D01*
X122440000Y-36630000D02*
X126799000Y-36630000D01*
X115223000Y-36590000D02*
X119560000Y-36590000D01*
X122440000Y-36590000D02*
X126777000Y-36590000D01*
X115245000Y-36550000D02*
X119560000Y-36550000D01*
X122440000Y-36550000D02*
X126755000Y-36550000D01*
X115267000Y-36510000D02*
X119560000Y-36510000D01*
X122440000Y-36510000D02*
X126733000Y-36510000D01*
X115290000Y-36470000D02*
X119560000Y-36470000D01*
X122440000Y-36470000D02*
X126710000Y-36470000D01*
X115313000Y-36430000D02*
X119560000Y-36430000D01*
X122440000Y-36430000D02*
X126687000Y-36430000D01*
X115336000Y-36390000D02*
X119560000Y-36390000D01*
X122440000Y-36390000D02*
X126664000Y-36390000D01*
X115360000Y-36350000D02*
X119560000Y-36350000D01*
X122440000Y-36350000D02*
X126640000Y-36350000D01*
X115384000Y-36310000D02*
X119560000Y-36310000D01*
X122440000Y-36310000D02*
X126616000Y-36310000D01*
X115408000Y-36270000D02*
X119560000Y-36270000D01*
X122440000Y-36270000D02*
X126592000Y-36270000D01*
X115433000Y-36230000D02*
X119560000Y-36230000D01*
X122440000Y-36230000D02*
X126567000Y-36230000D01*
X115459000Y-36190000D02*
X119560000Y-36190000D01*
X122440000Y-36190000D02*
X126541000Y-36190000D01*
X115484000Y-36150000D02*
X119560000Y-36150000D01*
X122440000Y-36150000D02*
X126516000Y-36150000D01*
X115511000Y-36110000D02*
X119560000Y-36110000D01*
X122440000Y-36110000D02*
X126489000Y-36110000D01*
X115537000Y-36070000D02*
X119560000Y-36070000D01*
X122440000Y-36070000D02*
X126463000Y-36070000D01*
X115564000Y-36030000D02*
X119560000Y-36030000D01*
X122440000Y-36030000D02*
X126436000Y-36030000D01*
X115591000Y-35990000D02*
X119560000Y-35990000D01*
X122440000Y-35990000D02*
X126409000Y-35990000D01*
X115619000Y-35950000D02*
X119560000Y-35950000D01*
X122440000Y-35950000D02*
X126381000Y-35950000D01*
X115648000Y-35910000D02*
X119560000Y-35910000D01*
X122440000Y-35910000D02*
X126352000Y-35910000D01*
X115676000Y-35870000D02*
X119560000Y-35870000D01*
X122440000Y-35870000D02*
X126324000Y-35870000D01*
X115705000Y-35830000D02*
X119560000Y-35830000D01*
X122440000Y-35830000D02*
X126295000Y-35830000D01*
X115735000Y-35790000D02*
X119560000Y-35790000D01*
X122440000Y-35790000D02*
X126265000Y-35790000D01*
X115765000Y-35750000D02*
X119560000Y-35750000D01*
X122440000Y-35750000D02*
X126235000Y-35750000D01*
X115796000Y-35710000D02*
X119560000Y-35710000D01*
X122440000Y-35710000D02*
X126204000Y-35710000D01*
X115827000Y-35670000D02*
X119560000Y-35670000D01*
X122440000Y-35670000D02*
X126173000Y-35670000D01*
X115858000Y-35630000D02*
X119560000Y-35630000D01*
X122440000Y-35630000D02*
X126142000Y-35630000D01*
X115890000Y-35590000D02*
X119560000Y-35590000D01*
X122440000Y-35590000D02*
X126110000Y-35590000D01*
X115923000Y-35550000D02*
X119560000Y-35550000D01*
X122440000Y-35550000D02*
X126077000Y-35550000D01*
X115956000Y-35510000D02*
X119560000Y-35510000D01*
X122440000Y-35510000D02*
X126044000Y-35510000D01*
X115990000Y-35470000D02*
X119560000Y-35470000D01*
X122440000Y-35470000D02*
X126010000Y-35470000D01*
X116024000Y-35430000D02*
X119560000Y-35430000D01*
X122440000Y-35430000D02*
X125976000Y-35430000D01*
X116059000Y-35390000D02*
X119560000Y-35390000D01*
X122440000Y-35390000D02*
X125941000Y-35390000D01*
X116094000Y-35350000D02*
X119560000Y-35350000D01*
X122440000Y-35350000D02*
X125906000Y-35350000D01*
X116130000Y-35310000D02*
X119560000Y-35310000D01*
X122440000Y-35310000D02*
X125870000Y-35310000D01*
X116166000Y-35270000D02*
X119560000Y-35270000D01*
X122440000Y-35270000D02*
X125834000Y-35270000D01*
X116203000Y-35230000D02*
X119560000Y-35230000D01*
X122440000Y-35230000D02*
X125797000Y-35230000D01*
X116241000Y-35190000D02*
X119560000Y-35190000D01*
X122440000Y-35190000D02*
X125759000Y-35190000D01*
X116279000Y-35150000D02*
X119560000Y-35150000D01*
X122440000Y-35150000D02*
X125721000Y-35150000D01*
X116318000Y-35110000D02*
X119560000Y-35110000D01*
X122440000Y-35110000D02*
X125682000Y-35110000D01*
X116358000Y-35070000D02*
X119560000Y-35070000D01*
X122440000Y-35070000D02*
X125642000Y-35070000D01*
X116398000Y-35030000D02*
X119560000Y-35030000D01*
X122440000Y-35030000D02*
X125602000Y-35030000D01*
X116439000Y-34990000D02*
X119560000Y-34990000D01*
X122440000Y-34990000D02*
X125561000Y-34990000D01*
X116481000Y-34950000D02*
X119560000Y-34950000D01*
X122440000Y-34950000D02*
X125519000Y-34950000D01*
X116523000Y-34910000D02*
X119560000Y-34910000D01*
X122440000Y-34910000D02*
X125477000Y-34910000D01*
X116567000Y-34870000D02*
X119560000Y-34870000D01*
X122440000Y-34870000D02*
X125433000Y-34870000D01*
X116611000Y-34830000D02*
X119560000Y-34830000D01*
X122440000Y-34830000D02*
X125389000Y-34830000D01*
X116656000Y-34790000D02*
X119560000Y-34790000D01*
X122440000Y-34790000D02*
X125344000Y-34790000D01*
X116701000Y-34750000D02*
X119560000Y-34750000D01*
X122440000Y-34750000D02*
X125299000Y-34750000D01*
X116748000Y-34710000D02*
X119560000Y-34710000D01*
X122440000Y-34710000D02*
X125252000Y-34710000D01*
X116795000Y-34670000D02*
X119560000Y-34670000D01*
X122440000Y-34670000D02*
X125205000Y-34670000D01*
X116844000Y-34630000D02*
X119560000Y-34630000D01*
X122440000Y-34630000D02*
X125156000Y-34630000D01*
X116893000Y-34590000D02*
X119560000Y-34590000D01*
X122440000Y-34590000D02*
X125107000Y-34590000D01*
X116943000Y-34550000D02*
X125057000Y-34550000D01*
X116994000Y-34510000D02*
X125006000Y-34510000D01*
X117047000Y-34470000D02*
X124953000Y-34470000D01*
X117100000Y-34430000D02*
X124900000Y-34430000D01*
X117155000Y-34390000D02*
X124845000Y-34390000D01*
X117211000Y-34350000D02*
X124789000Y-34350000D01*
X117268000Y-34310000D02*
X124732000Y-34310000D01*
X117326000Y-34270000D02*
X124674000Y-34270000D01*
X117386000Y-34230000D02*
X124614000Y-34230000D01*
X117447000Y-34190000D02*
X124553000Y-34190000D01*
X117510000Y-34150000D02*
X124490000Y-34150000D01*
X117574000Y-34110000D02*
X124426000Y-34110000D01*
X117640000Y-34070000D02*
X124360000Y-34070000D01*
X117707000Y-34030000D02*
X124293000Y-34030000D01*
X117777000Y-33990000D02*
X124223000Y-33990000D01*
X117849000Y-33950000D02*
X124151000Y-33950000D01*
X117923000Y-33910000D02*
X124077000Y-33910000D01*
X117999000Y-33870000D02*
X124001000Y-33870000D01*
X118077000Y-33830000D02*
X123923000Y-33830000D01*
X118159000Y-33790000D02*
X123841000Y-33790000D01*
X118243000Y-33750000D02*
X123757000Y-33750000D01*
X118330000Y-33710000D02*
X123670000Y-33710000D01*
X118421000Y-33670000D02*
X123579000Y-33670000D01*
X118516000Y-33630000D02*
X123484000Y-33630000D01*
X118615000Y-33590000D02*
X123385000Y-33590000D01*
X118720000Y-33550000D02*
X123280000Y-33550000D01*
X118829000Y-33510000D02*
X123171000Y-33510000D01*
X118946000Y-33470000D02*
X123054000Y-33470000D01*
X119070000Y-33430000D02*
X122930000Y-33430000D01*
X119203000Y-33390000D02*
X122797000Y-33390000D01*
X119348000Y-33350000D02*
X122652000Y-33350000D01*
X119507000Y-33310000D02*
X122493000Y-33310000D01*
X119686000Y-33270000D02*
X122314000Y-33270000D01*
X119894000Y-33230000D02*
X122106000Y-33230000D01*
X120151000Y-33190000D02*
X121849000Y-33190000D01*
X120526000Y-33150000D02*
X121474000Y-33150000D01*
X127620000Y-39750000D02*
G75*
G02*
X114380000Y-39750000I-6620000J0D01*
G01*
X114380000Y-39750000D02*
G75*
G02*
X127620000Y-39750000I6620000J0D01*
G01*
%TO.C,TH1*%
X98050000Y-36950000D02*
X98050000Y-41050000D01*
X98050000Y-36950000D02*
X107950000Y-36950000D01*
X98050000Y-41050000D02*
X107950000Y-41050000D01*
X107950000Y-36950000D02*
X107950000Y-41050000D01*
%TO.C,U1*%
X137160000Y-50630000D02*
X137160000Y-86310000D01*
X137160000Y-86310000D02*
X142460000Y-86310000D01*
X138810000Y-50630000D02*
X137160000Y-50630000D01*
X142460000Y-50630000D02*
X140810000Y-50630000D01*
X142460000Y-86310000D02*
X142460000Y-50630000D01*
X140810000Y-50630000D02*
G75*
G02*
X138810000Y-50630000I-1000000J0D01*
G01*
%TO.C,C3*%
X155011200Y-73672000D02*
X150471200Y-73672000D01*
X155011200Y-73616000D02*
X155011200Y-73672000D01*
X150471200Y-71588000D02*
X150471200Y-71532000D01*
X150471200Y-71532000D02*
X155011200Y-71532000D01*
%TD*%
M02*
