%TF.GenerationSoftware,KiCad,Pcbnew,9.0.4*%
%TF.CreationDate,2025-09-02T22:33:32-03:00*%
%TF.ProjectId,sillion,73696c6c-696f-46e2-9e6b-696361645f70,rev?*%
%TF.SameCoordinates,Original*%
%TF.FileFunction,Other,User*%
%FSLAX46Y46*%
G04 Gerber Fmt 4.6, Leading zero omitted, Abs format (unit mm)*
G04 Created by KiCad (PCBNEW 9.0.4) date 2025-09-02 22:33:32*
%MOMM*%
%LPD*%
G01*
G04 APERTURE LIST*
%ADD10C,0.050000*%
G04 APERTURE END LIST*
D10*
%TO.C,J2*%
X161526400Y-75250800D02*
X178686400Y-75250800D01*
X178686400Y-75250800D02*
X178686400Y-43390800D01*
X161526400Y-43390800D02*
X161526400Y-75250800D01*
X178686400Y-43390800D02*
X161526400Y-43390800D01*
%TO.C,D3*%
X158790000Y-36480000D02*
X165210000Y-36480000D01*
X165210000Y-36480000D02*
X165210000Y-30050000D01*
X158790000Y-30050000D02*
X158790000Y-36480000D01*
X165210000Y-30050000D02*
X158790000Y-30050000D01*
%TO.C,C5*%
X149191200Y-80402000D02*
X156291200Y-80402000D01*
X156291200Y-82802000D01*
X149191200Y-82802000D01*
X149191200Y-80402000D01*
%TO.C,C1*%
X149191200Y-74402000D02*
X156291200Y-74402000D01*
X156291200Y-76802000D01*
X149191200Y-76802000D01*
X149191200Y-74402000D01*
%TO.C,C4*%
X149191200Y-77402000D02*
X156291200Y-77402000D01*
X156291200Y-79802000D01*
X149191200Y-79802000D01*
X149191200Y-77402000D01*
%TO.C,C2*%
X156291200Y-70802000D02*
X149191200Y-70802000D01*
X149191200Y-68402000D01*
X156291200Y-68402000D01*
X156291200Y-70802000D01*
%TO.C,C11*%
X158441200Y-55082000D02*
X155041200Y-55082000D01*
X158441200Y-53122000D02*
X158441200Y-55082000D01*
X155041200Y-55082000D02*
X155041200Y-53122000D01*
X155041200Y-53122000D02*
X158441200Y-53122000D01*
%TO.C,C10*%
X154491200Y-55082000D02*
X151091200Y-55082000D01*
X154491200Y-53122000D02*
X154491200Y-55082000D01*
X151091200Y-55082000D02*
X151091200Y-53122000D01*
X151091200Y-53122000D02*
X154491200Y-53122000D01*
%TO.C,U3*%
X159261200Y-57252000D02*
X159261200Y-58902000D01*
X149221200Y-57252000D02*
X159261200Y-57252000D01*
X159441200Y-58902000D02*
X159441200Y-63302000D01*
X159261200Y-58902000D02*
X159441200Y-58902000D01*
X149221200Y-58902000D02*
X149221200Y-57252000D01*
X149041200Y-58902000D02*
X149221200Y-58902000D01*
X159441200Y-63302000D02*
X159261200Y-63302000D01*
X159261200Y-63302000D02*
X159261200Y-64952000D01*
X149221200Y-63302000D02*
X149041200Y-63302000D01*
X149041200Y-63302000D02*
X149041200Y-58902000D01*
X159261200Y-64952000D02*
X149221200Y-64952000D01*
X149221200Y-64952000D02*
X149221200Y-63302000D01*
%TO.C,SW1*%
X147700800Y-42173200D02*
X147700800Y-42423200D01*
X147700800Y-49423200D02*
X147700800Y-42423200D01*
X147700800Y-49673200D02*
X147700800Y-49423200D01*
X147950800Y-42173200D02*
X147700800Y-42173200D01*
X147950800Y-42173200D02*
X156950800Y-42173200D01*
X147950800Y-49673200D02*
X147700800Y-49673200D01*
X156950800Y-49673200D02*
X147950800Y-49673200D01*
X157200800Y-42173200D02*
X156950800Y-42173200D01*
X157200800Y-42423200D02*
X157200800Y-42173200D01*
X157200800Y-42423200D02*
X157200800Y-49423200D01*
X157200800Y-49423200D02*
X157200800Y-49673200D01*
X157200800Y-49673200D02*
X156950800Y-49673200D01*
%TO.C,C6*%
X113300000Y-32050000D02*
X115700000Y-32050000D01*
X115700000Y-24950000D01*
X113300000Y-24950000D01*
X113300000Y-32050000D01*
%TO.C,U2*%
X128550000Y-24650000D02*
X127330000Y-24650000D01*
X128550000Y-19750000D02*
X128550000Y-24650000D01*
X127850000Y-29350000D02*
X125540000Y-29350000D01*
X127850000Y-27050000D02*
X127850000Y-29350000D01*
X127330000Y-27050000D02*
X127850000Y-27050000D01*
X127330000Y-24650000D02*
X127330000Y-27050000D01*
X126070000Y-27050000D02*
X126070000Y-25650000D01*
X126070000Y-25650000D02*
X123930000Y-25650000D01*
X125540000Y-29350000D02*
X125540000Y-27050000D01*
X125540000Y-27050000D02*
X126070000Y-27050000D01*
X124450000Y-29350000D02*
X122150000Y-29350000D01*
X124450000Y-27050000D02*
X124450000Y-29350000D01*
X123930000Y-27050000D02*
X124450000Y-27050000D01*
X123930000Y-25650000D02*
X123930000Y-27050000D01*
X122670000Y-27050000D02*
X122670000Y-25650000D01*
X122670000Y-25650000D02*
X120530000Y-25650000D01*
X122150000Y-29350000D02*
X122150000Y-27050000D01*
X122150000Y-27050000D02*
X122670000Y-27050000D01*
X121050000Y-29350000D02*
X118750000Y-29350000D01*
X121050000Y-27050000D02*
X121050000Y-29350000D01*
X120530000Y-27050000D02*
X121050000Y-27050000D01*
X120530000Y-25650000D02*
X120530000Y-27050000D01*
X119270000Y-27050000D02*
X119270000Y-24650000D01*
X119270000Y-24650000D02*
X118050000Y-24650000D01*
X118750000Y-29350000D02*
X118750000Y-27050000D01*
X118750000Y-27050000D02*
X119270000Y-27050000D01*
X118050000Y-24650000D02*
X118050000Y-19750000D01*
X118050000Y-19750000D02*
X128550000Y-19750000D01*
%TO.C,D1*%
X132750000Y-19550000D02*
X143250000Y-19550000D01*
X143250000Y-24450000D01*
X132750000Y-24450000D01*
X132750000Y-19550000D01*
%TO.C,C14*%
X128294888Y-83000000D02*
G75*
G02*
X122794888Y-83000000I-2750000J0D01*
G01*
X122794888Y-83000000D02*
G75*
G02*
X128294888Y-83000000I2750000J0D01*
G01*
%TO.C,Q1*%
X105790000Y-88400000D02*
X95290000Y-88400000D01*
X95290000Y-83500000D01*
X105790000Y-83500000D01*
X105790000Y-88400000D01*
%TO.C,D2*%
X98850000Y-28250000D02*
X106150000Y-28250000D01*
X98850000Y-32750000D02*
X98850000Y-28250000D01*
X106150000Y-28250000D02*
X106150000Y-32750000D01*
X106150000Y-32750000D02*
X98850000Y-32750000D01*
%TO.C,R6*%
X123000000Y-57185000D02*
X120000000Y-57185000D01*
X120000000Y-69445000D01*
X123000000Y-69445000D01*
X123000000Y-57185000D01*
%TO.C,Y1*%
X127319600Y-77826800D02*
X127319600Y-71426800D01*
X132979600Y-71426800D02*
X132979600Y-77826800D01*
X132979600Y-77826800D02*
G75*
G02*
X127319600Y-77826800I-2830000J0D01*
G01*
X127319600Y-71426800D02*
G75*
G02*
X132979600Y-71426800I2830000J0D01*
G01*
%TO.C,U4*%
X112635000Y-50440000D02*
X122365000Y-50440000D01*
X122365000Y-56030000D01*
X112635000Y-56030000D01*
X112635000Y-50440000D01*
%TO.C,R8*%
X110630000Y-75735000D02*
X98370000Y-75735000D01*
X98370000Y-72735000D01*
X110630000Y-72735000D01*
X110630000Y-75735000D01*
%TO.C,R7*%
X110870000Y-72735000D02*
X123130000Y-72735000D01*
X123130000Y-75735000D01*
X110870000Y-75735000D01*
X110870000Y-72735000D01*
%TO.C,R5*%
X93870000Y-48735000D02*
X106130000Y-48735000D01*
X106130000Y-51735000D01*
X93870000Y-51735000D01*
X93870000Y-48735000D01*
%TO.C,R2*%
X147370000Y-24500000D02*
X159630000Y-24500000D01*
X159630000Y-27500000D01*
X147370000Y-27500000D01*
X147370000Y-24500000D01*
%TO.C,R1*%
X130500000Y-52870000D02*
X127500000Y-52870000D01*
X127500000Y-65130000D01*
X130500000Y-65130000D01*
X130500000Y-52870000D01*
%TO.C,L1*%
X142000000Y-35500000D02*
G75*
G02*
X129000000Y-35500000I-6500000J0D01*
G01*
X129000000Y-35500000D02*
G75*
G02*
X142000000Y-35500000I6500000J0D01*
G01*
%TO.C,J4*%
X92970000Y-62640000D02*
X80030000Y-62640000D01*
X92970000Y-62640000D02*
X92970000Y-73830000D01*
X80030000Y-73830000D02*
X80030000Y-62640000D01*
X80030000Y-73830000D02*
X92970000Y-73830000D01*
%TO.C,J3*%
X92970000Y-47405000D02*
X80030000Y-47405000D01*
X92970000Y-47405000D02*
X92970000Y-58595000D01*
X80030000Y-58595000D02*
X80030000Y-47405000D01*
X80030000Y-58595000D02*
X92970000Y-58595000D01*
%TO.C,J1*%
X80000000Y-37750000D02*
X80000000Y-28250000D01*
X89000000Y-37750000D02*
X80000000Y-37750000D01*
X89000000Y-39750000D02*
X89000000Y-37750000D01*
X93000000Y-37750000D02*
X93000000Y-39750000D01*
X93000000Y-39750000D02*
X89000000Y-39750000D01*
X95000000Y-28250000D02*
X80000000Y-28250000D01*
X95000000Y-28500000D02*
X95000000Y-28250000D01*
X95000000Y-28500000D02*
X95000000Y-31000000D01*
X95000000Y-31000000D02*
X96000000Y-31000000D01*
X95000000Y-35000000D02*
X95000000Y-37750000D01*
X95000000Y-37750000D02*
X93000000Y-37750000D01*
X96000000Y-31000000D02*
X96000000Y-35000000D01*
X96000000Y-35000000D02*
X95000000Y-35000000D01*
%TO.C,F1*%
X117220000Y-69085000D02*
X117220000Y-61385000D01*
X117220000Y-69085000D02*
X94780000Y-69085000D01*
X94780000Y-61385000D02*
X117220000Y-61385000D01*
X94780000Y-61385000D02*
X94780000Y-69085000D01*
%TO.C,D6*%
X103500000Y-57485000D02*
X96500000Y-57485000D01*
X103500000Y-53985000D02*
X103500000Y-57485000D01*
X96500000Y-57485000D02*
X96500000Y-53985000D01*
X96500000Y-53985000D02*
X103500000Y-53985000D01*
%TO.C,D5*%
X119930000Y-81835000D02*
X107070000Y-81835000D01*
X107070000Y-78635000D01*
X119930000Y-78635000D01*
X119930000Y-81835000D01*
%TO.C,D4*%
X111750000Y-30500000D02*
X111750000Y-37500000D01*
X108250000Y-30500000D02*
X111750000Y-30500000D01*
X111750000Y-37500000D02*
X108250000Y-37500000D01*
X108250000Y-37500000D02*
X108250000Y-30500000D01*
%TO.C,C15*%
X109700000Y-50185000D02*
X107300000Y-50185000D01*
X107300000Y-57285000D01*
X109700000Y-57285000D01*
X109700000Y-50185000D01*
%TO.C,C13*%
X96700000Y-70685000D02*
X94300000Y-70685000D01*
X94300000Y-77785000D01*
X96700000Y-77785000D01*
X96700000Y-70685000D01*
%TO.C,C12*%
X132550000Y-50200000D02*
X125450000Y-50200000D01*
X125450000Y-47800000D01*
X132550000Y-47800000D01*
X132550000Y-50200000D01*
%TO.C,C9*%
X136450000Y-45800000D02*
X143550000Y-45800000D01*
X143550000Y-48200000D01*
X136450000Y-48200000D01*
X136450000Y-45800000D01*
%TO.C,C7*%
X152250000Y-34902651D02*
G75*
G02*
X143750000Y-34902651I-4250000J0D01*
G01*
X143750000Y-34902651D02*
G75*
G02*
X152250000Y-34902651I4250000J0D01*
G01*
%TO.C,C8*%
X127750000Y-39750000D02*
G75*
G02*
X114250000Y-39750000I-6750000J0D01*
G01*
X114250000Y-39750000D02*
G75*
G02*
X127750000Y-39750000I6750000J0D01*
G01*
%TO.C,TH1*%
X97950000Y-36850000D02*
X97950000Y-41150000D01*
X97950000Y-36850000D02*
X108050000Y-36850000D01*
X97950000Y-41150000D02*
X108050000Y-41150000D01*
X108050000Y-36850000D02*
X108050000Y-41150000D01*
%TO.C,U1*%
X134940000Y-50430000D02*
X144670000Y-50430000D01*
X144670000Y-86510000D01*
X134940000Y-86510000D01*
X134940000Y-50430000D01*
%TO.C,C3*%
X149191200Y-71402000D02*
X156291200Y-71402000D01*
X156291200Y-73802000D01*
X149191200Y-73802000D01*
X149191200Y-71402000D01*
%TD*%
M02*
